<svg width="77" height="59" viewBox="0 0 77 59" fill="none" xmlns="http://www.w3.org/2000/svg">
<g clip-path="url(#clip0_54_85)">
<path d="M55.5299 18.0391C55.3241 18.7294 51.6567 25.9245 51.6567 25.9245L38.3065 0L25.0542 26.3713L20.7977 18.3267L0 58.8898L77 59C77 59 55.9843 19.6181 55.5299 18.0391Z" fill="url(#paint0_linear_54_85)"/>
<path d="M21.1847 33.4121L19.5397 31.401C19.5397 31.401 17.5566 36.9901 17.3263 37.7135C17.3251 37.7355 17.3214 37.7551 17.3153 37.7698C17.2969 37.8114 17.3018 37.7894 17.3263 37.7135C17.3594 37.0917 15.2831 33.8589 15.2831 33.8589L20.8944 23.1312L23.6027 28.271L21.1847 33.4121Z" fill="white"/>
<path d="M50.302 36.6522L48.0775 42.3515L40.3386 26.3713L36.4691 33.8589L30.3764 22.1262C30.3764 22.1262 38.1154 7.48762 38.3089 7.15222C38.5025 6.81683 56.3983 42.0161 56.3983 42.0161L50.3044 36.6534L50.302 36.6522Z" fill="white"/>
<path d="M61.3298 44.2512L52.9135 28.7178L55.5249 23.2438L68.2934 47.3787L62.9736 41.6807L61.3298 44.2512Z" fill="white"/>
</g>
<defs>
<linearGradient id="paint0_linear_54_85" x1="38.5" y1="0" x2="38.5" y2="59" gradientUnits="userSpaceOnUse">
<stop stop-color="#05518F"/>
<stop offset="1" stop-color="#58ADDE"/>
</linearGradient>
<clipPath id="clip0_54_85">
<rect width="77" height="59" fill="white"/>
</clipPath>
</defs>
</svg>
