<svg width="61" height="61" viewBox="0 0 61 61" fill="none" xmlns="http://www.w3.org/2000/svg"><g clip-path="url(#anti-aging__a)"><path d="M30.5 0C13.659 0 0 13.653 0 30.5c0 3.134.474 6.158 1.351 9.005 1.47 5.17 4.263 9.708 8.2 13.33.415.386 1.299 1.064 1.7 1.305.63.384 1.49.795 3.623 1.086 2.99.402 6.638-1.088 8.664-2.592 1.229-.911 1.52-1.47 1.52-1.47s-.885-.78-1.155-1.123c-7.424-9.52 10.887-11.486 8.753-21.19-.247-1.122-.973-3.486-.973-3.486s2.13-.742 4.326-2.555l-.072.128s.04-.062.122-.17a14.395 14.395 0 0 0 1.693-1.655c.448-.342.98-.695 1.607-1.025 1.887-.992 3.551-.594 3.551-.594s-1.175-1.738-3.934-.038l-.015.008c2.149-3.547 2.478-8.623 1.466-13.543.093.09.195.191.307.303 4.403 4.4 3.611 10.007 3.89 11.414.716 3.61 3.915 6.68 6.117 8.766 1.21 1.147 2.23 1.753 2.422 2.549.135.568-.04 1.108-.624 1.499-.95.633-2.451.804-2.754 1.71-.14.41.056 1 .44 1.383.512.513.624.5.903.78.363.362.556.9-.252 1.504-.34.255-1.52.716-1.67.801-.19.112-.42.356.099.64.623.34 1.011.496 1.071.998.069.576-.186.888-.4 1.125-.372.41-1.536.718-1.536.718s.017 1.2.077 1.6c.082.584.2 1.018.414 1.657.15.444.45 1.164.142 2.061-.256.752-1.05 1.536-2.528 1.644-1.812.13-5.066-.308-6.897-.324-1.652-.012-3.415.346-5.107 1.883-2.143 1.949-4.066 3.649-6.45 5.415-1.532 1.135-7.462 5.004-7.777 5.208A30.366 30.366 0 0 0 30.498 61c16.842 0 30.5-13.656 30.5-30.5S47.343 0 30.501 0Zm1.522 17.326c-.29.386-.8.952-1.331 1.104.222.693.353 1.41.353 2.147.008 1.894-.784 3.504-1.947 4.727-1.943 2.045-4.892 3.17-7.7 3.035-1.306-.063-2.652-.422-3.801-1.264a5.585 5.585 0 0 1-1.42-1.536c-.096.18-.224.35-.344.525-.235.34-.469.68-.75.974-.612.632-1.432.762-2.283.471-.855-.292-1.604-.927-2.256-1.617-.585-.616-1.158-1.253-1.64-1.971-.211-.316-.045-.66.254-.718 1.128-.216 2.995-1.123 4.481-1.02-.606-1.14-.911-2.455-.807-3.717.192-2.395 1.51-4.168 3.173-5.478 1.337-1.052 2.92-1.867 4.616-2.033-.04-1.474 1.156-2.541 2.107-3.355.118-.102.288-.075.416.029.728.59 1.559 1.37 1.872 2.333.16.482.211.984.072 1.453-.052.182-.14.404-.256.594 1.783.946 3.415 2.32 3.875 2.88.01.009.018.017.026.03.018-.433.105-.848.294-1.225.424-.836 1.096-1.482 1.571-2.277.172-.286.664-.191.776.166.392 1.243 1.112 2.505 1.173 3.813.034.71-.126 1.405-.523 1.929" fill="url(#anti-aging__b)"/><path d="M40.71 27.593c3.594-.461 5.223-2.455 5.223-2.455s-1.102.102-1.69-.31c-.556-.384-.715-.69-.715-.69s-.142.481-.584 1.147c-.34.518-1.268 1.35-2.642 1.74-.653.184-1.277.201-1.947.12-.477-.058-.619-.128-.619-.128s.953.838 2.975.575" fill="url(#anti-aging__c)"/><path d="M15.291 24.216a6.275 6.275 0 0 1-1.142-1.214L14.137 23c-.56-.124-1.14-.038-1.667.104-.857.228-1.68.594-2.53.85.789 1.035 1.847 2.102 2.97 2.376.674.162 1.109.04 1.521-.52.299-.403.619-1.148 1.106-1.364-.091 0-.24-.212-.245-.232" fill="url(#anti-aging__d)"/><path d="M23.666 22.335c.793-.633 1.503-1.372 2.026-2.297.131-.233.242-.478.336-.73a5.78 5.78 0 0 1-1.04 1.006c-1.513 1.129-3.647 1.945-5.604 1.371-.852-.253-1.76-.633-2.331-1.461a3.486 3.486 0 0 1-.596-2.34c.172-1.651 1.271-3.25 2.735-3.675.812-.234 1.72-.182 2.502.345.605.408 1.037 1.15.935 1.915-.09.67-.487 1.326-1.081 1.55-.722.264-1.44.066-2.099-.452-.258-.202-.024-.672.25-.492.458.302 1.022.502 1.49.236.3-.17.579-.475.633-.865.15-1.112-1.18-1.42-1.918-1.292-.923.156-1.743.912-2.137 1.81-.343.774-.538 1.837.06 2.63.554.735 1.527 1.037 2.32 1.112.984.091 1.968-.168 2.834-.576 1.549-.735 3.396-2.311 3.059-4.514-.326-2.117-2.429-3.238-4.157-3.315-2.401-.11-4.598 1.168-6.232 2.873-1.286 1.341-2.082 3.574-1.322 5.638.732 2 2.401 3.287 4.286 3.337 1.864.048 3.614-.668 5.05-1.812" fill="url(#anti-aging__e)"/><path d="M22.722 11.1c.338.08.678.19 1.01.328.101-.18.253-.336.313-.552.075-.263.036-.578-.064-.849-.236-.618-.629-1.154-1.058-1.636-.854.617-1.706 1.378-1.802 2.535a6.105 6.105 0 0 1 1.6.174" fill="url(#anti-aging__f)"/><path d="M30.776 12.694c-.39.404-.803.788-1.118 1.26-.338.508-.399 1.09-.365 1.697.21.298.408.604.583.926.108.193.208.388.304.59.303-.256.691-.442.913-.78.234-.358.336-.794.286-1.26-.09-.84-.355-1.631-.604-2.433" fill="url(#anti-aging__g)"/><path d="M27.597 15.607c-.193-.226-.396-.436-.575-.656 1.339 2.385-.108 5.922-1.208 7.165-2.15 2.44-6.05 4.423-9.35 2.841a4.494 4.494 0 0 0 1.417 1.387c.94.573 2.003.824 3.028.844 2.67.048 5.517-.972 7.29-3.012.905-1.037 1.503-2.26 1.497-3.754-.004-1.122-.42-2.298-1-3.265a11.237 11.237 0 0 0-1.1-1.552" fill="url(#anti-aging__h)"/></g><defs><linearGradient id="anti-aging__b" x1="30.499" y1="0" x2="30.499" y2="61" gradientUnits="userSpaceOnUse"><stop stop-color="#58ADDE"/><stop offset="1" stop-color="#05518F"/></linearGradient><linearGradient id="anti-aging__c" x1="41.835" y1="24.138" x2="41.835" y2="27.643" gradientUnits="userSpaceOnUse"><stop stop-color="#05518F"/><stop offset="1" stop-color="#58ADDE"/></linearGradient><linearGradient id="anti-aging__d" x1="12.738" y1="22.94" x2="12.738" y2="26.396" gradientUnits="userSpaceOnUse"><stop stop-color="#05518F"/><stop offset="1" stop-color="#58ADDE"/></linearGradient><linearGradient id="anti-aging__e" x1="20.056" y1="12.294" x2="20.056" y2="24.151" gradientUnits="userSpaceOnUse"><stop stop-color="#05518F"/><stop offset="1" stop-color="#58ADDE"/></linearGradient><linearGradient id="anti-aging__f" x1="22.603" y1="8.391" x2="22.603" y2="11.428" gradientUnits="userSpaceOnUse"><stop stop-color="#05518F"/><stop offset="1" stop-color="#58ADDE"/></linearGradient><linearGradient id="anti-aging__g" x1="30.338" y1="12.694" x2="30.338" y2="17.167" gradientUnits="userSpaceOnUse"><stop stop-color="#05518F"/><stop offset="1" stop-color="#58ADDE"/></linearGradient><linearGradient id="anti-aging__h" x1="23.08" y1="14.951" x2="23.08" y2="27.189" gradientUnits="userSpaceOnUse"><stop stop-color="#05518F"/><stop offset="1" stop-color="#58ADDE"/></linearGradient><clipPath id="anti-aging__a"><path fill="white" d="M0 0h61v61H0z"/></clipPath></defs></svg>