<svg width="54" height="60" viewBox="0 0 54 60" fill="none" xmlns="http://www.w3.org/2000/svg">
<path fill-rule="evenodd" clip-rule="evenodd" d="M34.8441 24.9382C33.1926 27.1527 31.7262 29.1094 30.2718 31.0746C29.8776 31.6065 29.518 32.163 29.0253 32.8776C30.1332 33.6974 31.1544 34.4238 32.1442 35.1888C34.3892 36.923 34.8246 38.8635 33.2272 41.1221C30.5393 44.9247 27.7658 48.6703 24.9284 52.3644C23.4361 54.306 21.1001 54.5682 19.272 53.2251C17.6292 52.0184 17.2371 49.6889 18.5594 47.7753C20.4351 45.0611 22.4549 42.4448 24.5862 39.5533C23.7913 38.9344 23.0321 38.3413 22.0964 37.6128C21.5484 38.2672 21.047 38.8055 20.6117 39.3922C16.322 45.175 12.0562 50.974 7.75785 56.7494C5.82799 59.3421 3.51584 59.9169 1.46794 58.389C-0.434842 56.9707 -0.506318 54.6423 1.36181 52.1108C9.00652 41.7517 16.6718 31.4088 24.3273 21.0583C25.0778 20.0429 25.8186 19.021 26.6492 17.8853C25.6605 17.0375 24.7703 16.2757 23.6483 15.3141C21.713 17.5168 19.8514 19.6711 17.9519 21.79C16.0718 23.8874 14.0131 24.3161 12.4211 22.9977C10.7057 21.5762 10.8248 19.5003 12.7677 17.2589C15.1546 14.5028 17.5274 11.736 19.951 9.0133C22.274 6.40338 23.7913 6.32494 26.4207 8.58351C31.4414 12.8954 36.4577 17.2116 41.7004 21.718C43.7927 19.3348 45.7735 16.9537 47.8928 14.7027C50.0252 12.4388 53.3088 12.9341 53.9326 15.6676C54.1708 16.712 53.7528 18.2345 53.0684 19.0973C50.544 22.281 47.8257 25.3186 45.0955 28.3357C43.1321 30.5073 41.4427 30.5341 39.1381 28.6108C37.7725 27.4708 36.435 26.3007 34.8452 24.9393" fill="url(#paint0_linear_46_513)"/>
<path fill-rule="evenodd" clip-rule="evenodd" d="M47.9028 7.75319C47.9469 12.1212 44.6278 15.5815 40.3035 15.6753C35.8191 15.7736 32.2771 12.3863 32.2264 7.95309C32.1745 3.53975 35.6911 -0.0110187 40.1049 2.56947e-05C44.427 0.0110701 47.8587 3.42268 47.9028 7.75319" fill="url(#paint1_linear_46_513)"/>
<defs>
<linearGradient id="paint0_linear_46_513" x1="27" y1="6.96774" x2="27" y2="59.2258" gradientUnits="userSpaceOnUse">
<stop stop-color="#05518F"/>
<stop offset="1" stop-color="#58ADDE"/>
</linearGradient>
<linearGradient id="paint1_linear_46_513" x1="40.0645" y1="0" x2="40.0645" y2="15.6774" gradientUnits="userSpaceOnUse">
<stop stop-color="#05518F"/>
<stop offset="1" stop-color="#58ADDE"/>
</linearGradient>
</defs>
</svg>
