<svg width="54" height="61" viewBox="0 0 54 61" fill="none" xmlns="http://www.w3.org/2000/svg">
<g clip-path="url(#clip0_104_328)">
<path d="M0.159943 34.552C-0.289597 35.6659 0.242752 36.9372 1.35003 37.3899L7.36081 39.8513L1.79839 43.2183C0.760902 43.8152 0.400089 45.146 0.992767 46.1908C1.58545 47.2357 2.90685 47.5991 3.94433 47.0022C3.97272 46.9855 3.99993 46.9688 4.02714 46.9521L9.58957 43.5864L8.92591 50.0891C8.82299 51.2877 9.70432 52.3432 10.8944 52.4469C12.0573 52.5482 13.0912 51.7011 13.2284 50.5335L14.2233 40.7806L24.8537 34.3494V46.8389L17.0661 52.7209C16.1102 53.4429 15.9162 54.8083 16.6331 55.7709C17.35 56.7336 18.7057 56.929 19.6616 56.207L24.8537 52.286V58.8221C24.8537 60.0254 25.8226 61.0012 27.0174 61.0012C28.2122 61.0012 29.1811 60.0254 29.1811 58.8221V52.286L34.3732 56.207C35.3291 56.929 36.6848 56.7336 37.4017 55.7709C38.1186 54.8083 37.9246 53.4429 36.9687 52.7209L29.1811 46.8389V34.3494L39.8103 40.7818L40.8052 50.5347C40.9081 51.7332 41.9562 52.6208 43.1463 52.5172C44.3364 52.4135 45.2177 51.3579 45.1148 50.1594C45.1124 50.1368 45.1101 50.1129 45.1077 50.0903L44.444 43.5876L50.0065 46.9533C51.0167 47.5955 52.3523 47.2929 52.9911 46.2754C53.63 45.2579 53.3283 43.9128 52.318 43.2695C52.2908 43.2528 52.2636 43.2349 52.2352 43.2195L46.6728 39.8525L52.6836 37.3911C53.7826 36.9205 54.296 35.6409 53.8275 34.5341C53.3709 33.4511 52.1429 32.9293 51.0546 33.3558L42.0366 37.0492L31.217 30.5L42.0378 23.952L51.0558 27.6466C52.1701 28.0814 53.4229 27.5251 53.8547 26.4039C54.2771 25.3078 53.7589 24.0712 52.6848 23.6113L46.674 21.1498L52.2364 17.7829C53.2739 17.186 53.6347 15.8552 53.042 14.8104C52.4493 13.7655 51.1279 13.4021 50.0905 13.999C50.0621 14.0157 50.0349 14.0324 50.0076 14.0491L44.4452 17.4148L45.1089 10.9121C45.2307 9.71473 44.366 8.64484 43.1782 8.52213C41.9905 8.39941 40.927 9.27033 40.8052 10.4665L39.8103 20.2194L29.1799 26.6518V14.1611L36.9675 8.27908C37.9234 7.55709 38.1174 6.19174 37.4017 5.22908C36.686 4.26643 35.3291 4.07103 34.3732 4.79184H34.372L29.1799 8.71394V2.17908C29.1799 0.975762 28.211 0 27.0174 0C25.8238 0 24.8537 0.975762 24.8537 2.17908V8.71514L19.6616 4.79422C18.7057 4.07223 17.35 4.26762 16.6331 5.23027C15.9162 6.19293 16.1102 7.55828 17.0661 8.28027L24.8537 14.1622V26.6518L14.2245 20.2194L13.2296 10.4665C13.0889 9.27152 12.0123 8.41848 10.8258 8.56025C9.66646 8.69846 8.82535 9.73975 8.92591 10.9109L9.58957 17.4136L4.02714 14.0479C3.01686 13.4057 1.68127 13.7083 1.04245 14.7258C0.404819 15.7432 0.706482 17.0883 1.71558 17.7317C1.74278 17.7484 1.76999 17.7662 1.79839 17.7817L7.36199 21.1487L1.35122 23.6101C0.252216 24.0807 -0.261204 25.3603 0.20726 26.4671C0.663895 27.5501 1.89184 28.0719 2.98019 27.6454L11.9981 23.952L22.8178 30.5012L11.997 37.0492L2.97901 33.3558C1.8741 32.9019 0.613026 33.4356 0.162308 34.5484C0.162308 34.5484 0.162308 34.5508 0.161125 34.552H0.159943Z" fill="url(#paint0_linear_104_328)"/>
</g>
<defs>
<linearGradient id="paint0_linear_104_328" x1="27.001" y1="0" x2="27.001" y2="61.0012" gradientUnits="userSpaceOnUse">
<stop stop-color="#05518F"/>
<stop offset="1" stop-color="#58ADDE"/>
</linearGradient>
<clipPath id="clip0_104_328">
<rect width="54" height="61" fill="white" transform="matrix(-1 0 0 1 54 0)"/>
</clipPath>
</defs>
</svg>
