<svg width="36" height="36" viewBox="0 0 36 36" fill="none" xmlns="http://www.w3.org/2000/svg"><g clip-path="url(#001-facebook 1__a)"><path d="M18 0a18 18 0 1 0 0 36 18 18 0 0 0 0-36Zm4.562 16.295-.299 2.508a.473.473 0 0 1-.474.421h-2.605v7.437a.337.337 0 0 1-.331.339H16.2a.336.336 0 0 1-.332-.341l.015-7.434H13.91a.473.473 0 0 1-.474-.474v-2.506a.473.473 0 0 1 .474-.474h1.958v-2.43C15.868 10.53 17.543 9 19.99 9h2.006a.474.474 0 0 1 .474.474v2.11a.473.473 0 0 1-.474.474h-1.229c-1.33.02-1.582.658-1.582 1.61v2.096h2.918a.473.473 0 0 1 .46.53Z" fill="#58ADDE"/></g><defs><clipPath id="001-facebook 1__a"><path fill="white" d="M0 0h36v36H0z"/></clipPath></defs></svg>