<svg width="68" height="23" viewBox="0 0 68 23" fill="none" xmlns="http://www.w3.org/2000/svg"><path d="M29.1 11.78c0 3.22-2.52 5.594-5.611 5.594-3.092 0-5.611-2.373-5.611-5.594 0-3.243 2.519-5.593 5.61-5.593 3.093 0 5.612 2.35 5.612 5.593Zm-2.456 0c0-2.012-1.46-3.39-3.155-3.39-1.695 0-3.155 1.378-3.155 3.39 0 1.992 1.46 3.39 3.155 3.39 1.694 0 3.155-1.4 3.155-3.39Zm14.561 0c0 3.22-2.52 5.594-5.611 5.594-3.092 0-5.611-2.373-5.611-5.594 0-3.24 2.519-5.593 5.61-5.593 3.093 0 5.612 2.35 5.612 5.593Zm-2.456 0c0-2.012-1.46-3.39-3.155-3.39-1.695 0-3.155 1.378-3.155 3.39 0 1.992 1.46 3.39 3.155 3.39 1.695 0 3.155-1.4 3.155-3.39Zm14.057-5.256v10.043c0 4.13-2.436 5.818-5.316 5.818-2.712 0-4.343-1.814-4.959-3.297l2.14-.89c.38.91 1.313 1.985 2.816 1.985 1.843 0 2.986-1.137 2.986-3.279V16.1h-.086c-.55.678-1.609 1.271-2.945 1.271-2.797 0-5.36-2.436-5.36-5.57 0-3.158 2.563-5.614 5.36-5.614 1.334 0 2.393.592 2.945 1.25h.086v-.91h2.333v-.003ZM50.647 11.8c0-1.97-1.314-3.41-2.986-3.41-1.695 0-3.114 1.44-3.114 3.41 0 1.95 1.42 3.37 3.114 3.37 1.672 0 2.986-1.42 2.986-3.37ZM56.652.638V17.03h-2.396V.638h2.396Zm9.335 12.984 1.907 1.27c-.615.911-2.098 2.48-4.66 2.48-3.178 0-5.551-2.457-5.551-5.594 0-3.326 2.393-5.593 5.276-5.593 2.902 0 4.322 2.31 4.786 3.558l.255.636-7.477 3.096c.572 1.123 1.462 1.695 2.71 1.695 1.252 0 2.119-.615 2.755-1.548Zm-5.868-2.013 4.999-2.075c-.275-.699-1.103-1.186-2.076-1.186-1.248 0-2.986 1.102-2.923 3.261Zm-51.31-1.284V7.95h7.997c.078.414.118.903.118 1.433 0 1.78-.486 3.982-2.055 5.55-1.526 1.59-3.475 2.437-6.058 2.437C4.025 17.37 0 13.47 0 8.685S4.025 0 8.811 0c2.648 0 4.535 1.039 5.952 2.393L13.09 4.068c-1.017-.953-2.394-1.695-4.28-1.695-3.495 0-6.23 2.817-6.23 6.312 0 3.496 2.735 6.313 6.23 6.313 2.267 0 3.558-.91 4.386-1.738.67-.67 1.112-1.63 1.286-2.938l-5.672.003Z" fill="white"/></svg>