<svg width="49" height="63" viewBox="0 0 49 63" fill="none" xmlns="http://www.w3.org/2000/svg">
<path d="M21.4047 5.36816C15.9174 1.09476 8.00537 2.06919 3.73132 7.55156C-0.550925 13.0384 0.427011 20.9537 5.91365 25.2348C11.3954 29.5129 19.3152 28.5379 23.5941 23.0456C27.8742 17.5676 26.8914 9.64928 21.4048 5.36687" fill="url(#paint0_linear_821_43)"/>
<path d="M20.3124 6.77031C22.9082 8.80306 24.3186 11.7794 24.457 14.8313L14.7281 14.7803L20.701 7.12922L20.2935 6.80757L19.8739 6.49005L19.6526 6.77544L13.7168 14.3883L8.73718 6.20144L8.54853 5.89919L7.65817 6.44197L12.7444 14.8018L2.92591 16.5093C2.6172 13.798 3.32494 10.9665 5.13271 8.65296C8.80239 3.94246 15.6101 3.11288 20.3124 6.77031Z" fill="white"/>
<path d="M12.8645 15.8339L10.8282 25.7352C9.4805 25.3756 8.17632 24.7448 7.01181 23.8266C4.91712 22.2016 3.5993 19.9525 3.09066 17.5349L12.8632 15.8337L12.8645 15.8339Z" fill="white"/>
<path d="M11.8554 25.9625L13.9321 15.8246L24.4473 15.8778C24.3401 18.0097 23.5994 20.144 22.1876 21.9579C19.6594 25.1965 15.647 26.5982 11.8554 25.9625Z" fill="white"/>
<path d="M30.7327 27.5983L37.0351 0L49.0001 2.6566L48.7359 3.73065L38.0524 1.41052L31.8391 27.5983H30.7327Z" fill="url(#paint1_linear_821_43)"/>
<path d="M32.1498 31.9448C32.8959 30.9649 42.8728 18.005 44.5228 15.9615C46.1708 13.9199 43.9964 14.2002 43.9964 14.2002H13.1445C13.1445 14.2002 10.9661 13.9189 12.6202 15.9615C14.2661 18.005 24.242 30.9649 24.9891 31.9448C25.7422 32.9371 27.0885 34.4085 27.4671 37.4424C27.8406 40.4697 27.8406 54.0598 26.9407 56.4512C26.0408 58.8493 25.5154 59.3388 23.6448 60.044C21.768 60.7474 18.3182 60.9536 18.3182 61.5933C18.3182 62.233 20.2658 62.7149 22.8896 62.7149H34.2473C36.869 62.7149 38.8207 62.2225 38.8207 61.5933C38.8207 60.9641 35.3759 60.7474 33.4941 60.044C31.6255 59.3388 31.0971 58.8493 30.1982 56.4512C29.2963 54.0588 29.2963 40.4697 29.6769 37.4424C30.0504 34.4085 31.3947 32.9371 32.1498 31.9448" fill="url(#paint2_linear_821_43)"/>
<defs>
<linearGradient id="paint0_linear_821_43" x1="14.773" y1="2.75463" x2="12.5491" y2="27.8517" gradientUnits="userSpaceOnUse">
<stop stop-color="#05518F"/>
<stop offset="1" stop-color="#58ADDE"/>
</linearGradient>
<linearGradient id="paint1_linear_821_43" x1="39.8664" y1="0" x2="39.8664" y2="27.5983" gradientUnits="userSpaceOnUse">
<stop stop-color="#58ADDE"/>
<stop offset="1" stop-color="#05518F"/>
</linearGradient>
<linearGradient id="paint2_linear_821_43" x1="28.57" y1="14.1871" x2="28.57" y2="62.7149" gradientUnits="userSpaceOnUse">
<stop stop-color="#58ADDE"/>
<stop offset="1" stop-color="#05518F"/>
</linearGradient>
</defs>
</svg>
