<svg width="50" height="63" viewBox="0 0 50 63" fill="none" xmlns="http://www.w3.org/2000/svg">
<g clip-path="url(#clip0_54_75)">
<path d="M49.115 14.115C31.7378 10.492 25 0.791565 25 0.791565C25 0.791565 18.2612 10.492 0.885028 14.115C0.885028 14.115 -4.78657 53.1494 25 62.0311C54.7875 53.1484 49.115 14.115 49.115 14.115Z" stroke="#05518F" stroke-miterlimit="10"/>
<path d="M25 59.4144C14.0562 55.8833 7.08499 47.4574 4.27243 34.3581C2.60767 26.6066 2.93588 19.3371 3.20812 16.1549C15.0171 13.3103 21.8659 7.79749 25.001 4.61528C28.136 7.79655 34.9839 13.3103 46.7938 16.1549C47.066 19.3362 47.3942 26.6066 45.7285 34.3581C42.915 47.4574 35.9438 55.8833 25.001 59.4144H25Z" stroke="#05518F" stroke-width="2.12" stroke-miterlimit="10"/>
<path d="M47.5119 16.0939L47.4682 15.5828L46.9636 15.4609C35.2504 12.6397 28.4993 7.14285 25.517 4.11633L25 3.59206L24.483 4.11633C21.5016 7.14191 14.7496 12.6397 3.03643 15.4609L2.53178 15.5828L2.48815 16.0939C2.1827 19.671 1.9152 26.8185 3.56669 34.5054C6.43616 47.8682 13.5724 56.477 24.7771 60.0925L25.001 60.1647L25.2248 60.0925C36.4295 56.477 43.5657 47.8682 46.4352 34.5054C48.0867 26.8167 47.8202 19.6701 47.5138 16.0939M3.88731 16.7232C15.0161 13.9378 21.7331 8.78882 25.001 5.62537C26.3252 6.90651 28.2148 8.51309 30.7333 10.1572L7.66363 42.6527C6.53671 40.1035 5.6384 37.2899 4.97724 34.2099C3.39784 26.8523 3.64922 19.8492 3.88541 16.7232M45.0218 34.2099C42.2861 46.9482 35.5502 55.1743 25 58.6631C21.495 57.5039 18.413 55.8186 15.756 53.6221L42.6494 15.7375C43.7545 16.0892 44.9061 16.4212 46.1146 16.7232C46.3508 19.8492 46.6031 26.8514 45.0228 34.2099" fill="url(#paint0_linear_54_75)"/>
</g>
<defs>
<linearGradient id="paint0_linear_54_75" x1="25.0012" y1="3.59206" x2="25.0012" y2="60.1647" gradientUnits="userSpaceOnUse">
<stop stop-color="#05518F"/>
<stop offset="1" stop-color="#58ADDE"/>
</linearGradient>
<clipPath id="clip0_54_75">
<rect width="50" height="62.5" fill="white"/>
</clipPath>
</defs>
</svg>
