<svg width="36" height="36" viewBox="0 0 36 36" fill="none" xmlns="http://www.w3.org/2000/svg"><g clip-path="url(#005-instagram 1__a)" fill="#58ADDE"><path d="M18 20.844a2.844 2.844 0 1 0 0-5.689 2.844 2.844 0 0 0 0 5.69Z"/><path d="M21.638 10.812h-7.276a3.553 3.553 0 0 0-3.553 3.552v7.274a3.553 3.553 0 0 0 3.553 3.552h7.276a3.553 3.553 0 0 0 3.552-3.552v-7.276a3.553 3.553 0 0 0-3.552-3.55ZM18 22.655a4.656 4.656 0 1 1-.005-9.311A4.656 4.656 0 0 1 18 22.656Zm4.682-8.162a1.15 1.15 0 1 1-.005-2.3 1.15 1.15 0 0 1 .005 2.3Z"/><path d="M18 0a18 18 0 1 0 0 36 18 18 0 0 0 0-36Zm9 21.638A5.367 5.367 0 0 1 21.638 27h-7.276A5.37 5.37 0 0 1 9 21.638v-7.276A5.37 5.37 0 0 1 14.362 9h7.276A5.37 5.37 0 0 1 27 14.362v7.276Z"/></g><defs><clipPath id="005-instagram 1__a"><path fill="white" d="M0 0h36v36H0z"/></clipPath></defs></svg>