<svg width="53" height="60" viewBox="0 0 53 60" fill="none" xmlns="http://www.w3.org/2000/svg">
<path d="M52.6034 45.0145L53 42.3921L31.3167 22.405C31.3167 22.405 30.5451 21.7641 29.7252 19.962V19.9707C29.6692 16.3442 29.5467 12.835 29.3166 9.79685C28.8803 4.05607 27.6966 0 26.5 0C25.3034 0 24.1162 4.05607 23.6834 9.79685C23.4532 12.835 23.3291 16.3442 23.2748 19.9707V19.962C22.4523 21.7641 21.6833 22.405 21.6833 22.405L0 42.3921L0.393991 45.0145L23.3058 32.3537V32.3485C23.4282 40.0397 23.6964 46.3412 23.6964 47.3642C23.6964 48.0483 24.1154 50.6517 24.6421 53.3215L17.8106 58.3084V59.8482L25.906 58.7483C26.1448 59.5204 26.3509 60 26.4991 60C26.6474 60 26.8517 59.5195 27.0888 58.7483L35.1859 59.8482V58.3084L28.3562 53.3215C28.8829 50.6517 29.3002 48.0483 29.3002 47.3642C29.3002 46.3412 29.5674 40.0397 29.6924 32.3485V32.3537L52.6026 45.0145H52.6034Z" fill="url(#paint0_linear_54_91)"/>
<defs>
<linearGradient id="paint0_linear_54_91" x1="26.5" y1="0" x2="26.5" y2="60" gradientUnits="userSpaceOnUse">
<stop stop-color="#05518F"/>
<stop offset="1" stop-color="#58ADDE"/>
</linearGradient>
</defs>
</svg>
