<svg width="77" height="77" viewBox="0 0 77 77" fill="none" xmlns="http://www.w3.org/2000/svg">
<path d="M20.0035 8.58165C17.2906 9.94459 14.835 11.7682 12.7459 13.9711C12.4927 14.2373 12.3555 14.5932 12.3646 14.9605C12.3737 15.3278 12.5283 15.6765 12.7945 15.9298C13.0607 16.1831 13.4166 16.3203 13.7839 16.3112C14.1512 16.3021 14.4999 16.1475 14.7532 15.8813L14.7534 15.8811C16.6221 13.9084 18.8203 12.2765 21.2493 11.0587L21.2495 11.0586C21.5782 10.8933 21.8279 10.6042 21.9435 10.2548C22.059 9.90546 22.0311 9.52449 21.8658 9.19573C21.7005 8.86696 21.4114 8.61733 21.062 8.50174C20.7127 8.38616 20.3317 8.41409 20.0029 8.57939L20.0035 8.58165Z" fill="#05518F" stroke="url(#paint0_linear_104_351)" stroke-width="0.25"/>
<circle cx="46.2811" cy="47.003" r="17.0148" fill="url(#paint1_linear_104_351)"/>
<path d="M25.4832 9.95038C26.2483 9.95038 26.8685 9.33018 26.8685 8.56513C26.8685 7.80007 26.2483 7.17987 25.4832 7.17987C24.7182 7.17987 24.098 7.80007 24.098 8.56513C24.098 9.33018 24.7182 9.95038 25.4832 9.95038Z" fill="#05518F" stroke="url(#paint2_linear_104_351)" stroke-width="0.25"/>
<path d="M31.808 0.878636L31.8079 0.878634C27.7442 0.815919 23.7089 1.56561 19.9388 3.0837C16.1688 4.60179 12.74 6.8577 9.85375 9.719L9.85363 9.71911C6.77921 12.7751 4.33942 16.4088 2.67462 20.4112C1.00982 24.4136 0.152883 28.7057 0.153107 33.0406L0.153107 33.0477L0.153919 33.0548C0.301019 34.3389 1.05068 40.3055 2.63047 46.5707C3.42032 49.7031 4.4186 52.914 5.65455 55.6529C6.88858 58.3876 8.36668 60.6682 10.1249 61.9231C10.7347 62.3837 11.438 62.7051 12.1854 62.8647C12.9334 63.0244 13.7073 63.0182 14.4525 62.8465L14.4528 62.8464C17.7371 62.0814 19.6705 60.2301 22.3117 57.6998C22.3864 57.6287 22.4617 57.5569 22.5377 57.4845C23.3897 56.6726 24.3255 55.781 25.4106 54.8221C26.5051 57.962 28.2753 60.8244 30.5972 63.2069C32.9626 65.6341 35.8407 67.5018 39.021 68.6733C42.2012 69.8448 45.6032 70.2906 48.9779 69.9779C52.3203 69.6682 55.5522 68.6223 58.4419 66.9158L66.6657 75.1396L66.6668 75.1407C67.699 76.1466 69.0858 76.7053 70.5269 76.696C71.9681 76.6866 73.3475 76.1099 74.3665 75.0908C75.3855 74.0716 75.962 72.6921 75.9711 71.2509C75.9802 69.8098 75.4212 68.423 74.4152 67.3911L74.4141 67.39L66.2854 59.2625C68.9448 55.0102 70.1195 49.995 69.6237 45.0023C69.1299 40.0292 67.0066 35.3602 63.5865 31.7202C65.5502 30.5654 67.1326 28.4934 68.49 26.0513C69.8802 23.5501 71.0435 20.6435 72.1393 17.9009L72.1393 17.9008C72.5823 16.7898 73.0842 15.6692 73.5721 14.5797L73.637 14.4349L73.637 14.4348L73.6399 14.4284C74.2715 13.0199 74.8626 11.702 75.2968 10.5108C75.7308 9.32018 76.0128 8.24444 76.0184 7.32188C76.0551 6.49083 75.9225 5.66098 75.6286 4.88274C75.3344 4.10373 74.8848 3.39272 74.3072 2.79295C73.7296 2.19318 73.036 1.71719 72.2686 1.39394C71.5012 1.07069 70.6761 0.90694 69.8434 0.912648C60.2413 0.975663 42.5336 1.05504 31.808 0.878636ZM11.7246 59.6652L11.7247 59.665L11.7187 59.6608C10.4916 58.7988 9.37021 57.1048 8.36728 54.9262C7.36642 52.7521 6.49151 50.1136 5.74835 47.3837C4.26328 41.9284 3.30808 36.1218 2.92364 32.9576C2.93326 29.0053 3.72146 25.0936 5.24323 21.4459C6.76598 17.7959 8.99338 14.482 11.798 11.6935L11.7981 11.6934C14.4172 9.08389 17.5338 7.02713 20.9631 5.64527C24.3923 4.26339 28.0643 3.58458 31.7609 3.64911L31.7611 3.64911C36.2264 3.72162 41.8939 3.75073 47.6814 3.75612C46.6709 10.6066 46.4622 17.5515 47.0597 24.4503C43.6875 24.426 40.3514 25.15 37.2919 26.571C34.1907 28.0114 31.4532 30.131 29.2822 32.7729C27.1112 35.4147 25.5623 38.5111 24.7503 41.8326C23.9441 45.1301 23.8846 48.5656 24.5756 51.8884C22.898 53.3106 21.5666 54.5761 20.3948 55.6992C17.8622 58.1258 16.3612 59.5607 13.8281 60.1453C13.464 60.2276 13.086 60.2272 12.722 60.1442C12.3579 60.0611 12.0171 59.8974 11.7246 59.6652ZM69.5656 16.8743L69.6817 16.9207L69.5656 16.8743C68.469 19.6204 67.3063 22.5272 65.97 24.903C64.6471 27.2547 63.1706 29.0548 61.4484 29.6828C58.1384 26.941 54.1185 25.1948 49.8559 24.6468C49.218 17.6838 49.4303 10.6691 50.4881 3.75751C57.7262 3.75713 64.8827 3.71828 69.8602 3.68442L69.8605 3.68441C70.3252 3.68004 70.7858 3.77198 71.2131 3.95442C71.6405 4.13686 72.0255 4.40586 72.3437 4.74445C72.662 5.08304 72.9067 5.48389 73.0624 5.92173C73.2181 6.35958 73.2813 6.82492 73.2483 7.28844L73.2479 7.28841V7.29734C73.2479 7.91044 72.9825 8.81718 72.5763 9.87889C72.1825 10.9081 71.6639 12.065 71.15 13.2113L71.1089 13.303L71.083 13.3608C70.5694 14.507 70.0364 15.6965 69.5656 16.8743ZM72.4548 69.3482C72.9575 69.8573 73.2385 70.5446 73.2363 71.2602C73.2341 71.9757 72.9489 72.6613 72.443 73.1673C71.9372 73.6734 71.2516 73.9587 70.5361 73.9612C69.8206 73.9636 69.1332 73.6828 68.6239 73.1802L60.7859 65.3422C62.2231 64.2373 63.525 62.9667 64.6647 61.5568L72.4548 69.3482ZM66.9643 47.2552C66.9643 51.2202 65.7885 55.0962 63.5856 58.393C61.3827 61.6899 58.2517 64.2595 54.5884 65.7769C50.9251 67.2943 46.8942 67.6913 43.0052 66.9177C39.1163 66.1442 35.5441 64.2348 32.7404 61.431C29.9366 58.6273 28.0272 55.0551 27.2537 51.1662C26.4801 47.2773 26.8772 43.2463 28.3945 39.583C29.9119 35.9197 32.4815 32.7887 35.7784 30.5858C39.0752 28.3829 42.9512 27.2071 46.9162 27.2071C52.2314 27.2134 57.327 29.3276 61.0854 33.086C64.8438 36.8444 66.958 41.94 66.9643 47.2552Z" fill="url(#paint3_linear_104_351)" stroke="url(#paint4_linear_104_351)" stroke-width="0.25"/>
<path d="M46.9077 29.8645H46.9076C43.4681 29.8645 40.1058 30.8844 37.2459 32.7953C34.3861 34.7062 32.1571 37.4223 30.8409 40.6C29.5246 43.7777 29.1802 47.2743 29.8512 50.6477C30.5223 54.0212 32.1785 57.1199 34.6106 59.552C37.0427 61.9841 40.1414 63.6403 43.5149 64.3114C46.8883 64.9824 50.3849 64.638 53.5626 63.3217C56.7403 62.0055 59.4564 59.7765 61.3673 56.9167C63.2782 54.0568 64.2981 50.6945 64.2981 47.255V47.2549C64.2927 42.6443 62.4588 38.2241 59.1986 34.964C55.9385 31.7038 51.5183 29.8699 46.9077 29.8645ZM46.9074 61.875C44.0159 61.875 41.1894 61.0175 38.7852 59.4111C36.3809 57.8046 34.507 55.5213 33.4005 52.8498C32.2939 50.1784 32.0044 47.2388 32.5685 44.4028C33.1326 41.5668 34.525 38.9618 36.5697 36.9171C38.6143 34.8725 41.2194 33.48 44.0554 32.9159C46.8914 32.3518 49.831 32.6413 52.5024 33.7479C55.1739 34.8544 57.4572 36.7283 59.0637 39.1326C60.6701 41.5368 61.5276 44.3634 61.5276 47.2549C61.523 51.1309 59.9811 54.8469 57.2403 57.5878C54.4995 60.3286 50.7835 61.8704 46.9074 61.875Z" fill="url(#paint5_linear_104_351)" stroke="url(#paint6_linear_104_351)" stroke-width="0.25"/>
<defs>
<linearGradient id="paint0_linear_104_351" x1="17.1889" y1="8.55652" x2="17.1889" y2="16.1866" gradientUnits="userSpaceOnUse">
<stop stop-color="#05518F"/>
<stop offset="1" stop-color="#58ADDE"/>
</linearGradient>
<linearGradient id="paint1_linear_104_351" x1="46.2811" y1="29.9882" x2="46.2811" y2="64.0177" gradientUnits="userSpaceOnUse">
<stop stop-color="#05518F"/>
<stop offset="1" stop-color="#5CAEDC"/>
</linearGradient>
<linearGradient id="paint2_linear_104_351" x1="25.4832" y1="7.30487" x2="25.4832" y2="9.82538" gradientUnits="userSpaceOnUse">
<stop stop-color="#05518F"/>
<stop offset="1" stop-color="#58ADDE"/>
</linearGradient>
<linearGradient id="paint3_linear_104_351" x1="38.0888" y1="1" x2="38.0888" y2="76.5711" gradientUnits="userSpaceOnUse">
<stop stop-color="#05518F"/>
<stop offset="1" stop-color="#58ADDE"/>
</linearGradient>
<linearGradient id="paint4_linear_104_351" x1="38.0888" y1="1" x2="38.0888" y2="76.5711" gradientUnits="userSpaceOnUse">
<stop stop-color="#05518F"/>
<stop offset="1" stop-color="#58ADDE"/>
</linearGradient>
<linearGradient id="paint5_linear_104_351" x1="46.9076" y1="29.9895" x2="46.9076" y2="64.5205" gradientUnits="userSpaceOnUse">
<stop stop-color="#05518F"/>
<stop offset="1" stop-color="#58ADDE"/>
</linearGradient>
<linearGradient id="paint6_linear_104_351" x1="46.9076" y1="29.9895" x2="46.9076" y2="64.5205" gradientUnits="userSpaceOnUse">
<stop stop-color="#05518F"/>
<stop offset="1" stop-color="#58ADDE"/>
</linearGradient>
</defs>
</svg>
