<svg width="17" height="17" viewBox="0 0 17 17" fill="none" xmlns="http://www.w3.org/2000/svg">
<path d="M5.3076 3.20375C5.36708 3.17384 5.41223 3.12154 5.43314 3.05834C5.45405 2.99515 5.449 2.92623 5.4191 2.86676M5.3076 3.20375L3.64621 3.8221L3.55567 3.73593C3.55564 3.73595 3.55561 3.73598 3.55559 3.73601C3.48697 3.80816 3.4498 3.90461 3.45226 4.00415C3.45473 4.10373 3.49665 4.19825 3.56881 4.26693L3.65444 4.17695L3.56881 4.26693C3.64097 4.3356 3.73745 4.37279 3.83703 4.37033C3.93661 4.36786 4.03114 4.32594 4.09981 4.25378L4.10001 4.25357C4.4635 3.86983 4.89111 3.55238 5.36363 3.31549L5.36375 3.31543C5.45285 3.27063 5.52049 3.19228 5.55182 3.09761C5.58314 3.00294 5.57557 2.8997 5.53078 2.81061L5.4191 2.86676M5.3076 3.20375C4.8221 3.44715 4.38274 3.77332 4.00926 4.16761L5.3076 3.20375ZM5.4191 2.86676C5.3892 2.80729 5.33689 2.76213 5.27369 2.74122C5.22013 2.7235 5.16246 2.72443 5.10991 2.74333L5.02702 2.64356C5.02673 2.6437 5.02645 2.64384 5.02616 2.64399C5.02613 2.644 5.0261 2.64402 5.02606 2.64404L5.02596 2.64359C5.11505 2.59879 5.21829 2.59122 5.31296 2.62255C5.40763 2.65387 5.48598 2.72152 5.53078 2.81061L5.4191 2.86676Z" fill="#05518F" stroke="url(#paint0_linear_105_396)" stroke-width="0.25"/>
<circle cx="10.2952" cy="10.3724" r="3.38268" fill="url(#paint1_linear_105_396)"/>
<path d="M6.16045 3.10608C6.36786 3.10608 6.53599 2.93794 6.53599 2.73053C6.53599 2.52312 6.36786 2.35498 6.16045 2.35498C5.95304 2.35498 5.7849 2.52312 5.7849 2.73053C5.7849 2.93794 5.95304 3.10608 6.16045 3.10608Z" fill="#05518F" stroke="url(#paint2_linear_105_396)" stroke-width="0.25"/>
<path d="M1.14948 7.59649C1.14943 6.73796 1.31915 5.8879 1.64887 5.09521C1.97858 4.30252 2.46179 3.58286 3.07068 2.97762C3.64215 2.4111 4.32103 1.96444 5.06747 1.66387C5.81391 1.3633 6.61287 1.21486 7.41746 1.22728C9.55013 1.26236 13.0708 1.24657 14.9798 1.23405L14.979 1.10905C15.1581 1.10783 15.3356 1.14305 15.5006 1.21259C15.6657 1.28212 15.8149 1.38452 15.9392 1.51354C16.0634 1.64257 16.1602 1.79552 16.2234 1.9631C16.2864 2.12993 16.315 2.30777 16.3074 2.48592M1.14948 7.59649L14.9789 1.10905C13.0697 1.12158 9.55049 1.13735 7.41951 1.1023L7.41939 1.1023C6.59815 1.08962 5.78266 1.24113 5.02078 1.54792C4.25889 1.85471 3.56597 2.31061 2.98268 2.88884L2.98256 2.88896C2.36198 3.50582 1.8695 4.2393 1.53345 5.0472C1.19741 5.85511 1.02443 6.72149 1.02448 7.59649L1.02448 7.60362L1.02529 7.61071C1.05476 7.86796 1.2044 9.05912 1.52003 10.3109C1.67781 10.9366 1.87798 11.5812 2.12707 12.1332C2.37425 12.6809 2.67674 13.1539 3.04782 13.4193C3.18048 13.5192 3.33338 13.589 3.49583 13.6237C3.65885 13.6585 3.82751 13.6571 3.98995 13.6197L3.99024 13.6197C4.67024 13.4613 5.07238 13.076 5.59151 12.5786L5.59898 12.5715C5.59904 12.5714 5.59911 12.5713 5.59917 12.5713C5.61392 12.5572 5.62878 12.5431 5.64376 12.5288C5.78371 12.3955 5.93406 12.2522 6.1028 12.0998C6.32744 12.683 6.66833 13.2152 7.10542 13.6637C7.58611 14.1569 8.17098 14.5365 8.81725 14.7745C9.46352 15.0126 10.1548 15.1032 10.8406 15.0396C11.494 14.9791 12.1266 14.7801 12.6965 14.4564L14.277 16.0369L14.277 16.0369L14.2782 16.0381C14.5022 16.2564 14.8033 16.3777 15.1162 16.3757C15.429 16.3736 15.7285 16.2484 15.9497 16.0272C16.1709 15.806 16.296 15.5065 16.298 15.1936C16.3 14.8808 16.1786 14.5798 15.9602 14.3557L15.9602 14.3557L15.9591 14.3546L14.3989 12.7946C14.9099 11.9453 15.1337 10.9528 15.0356 9.96467C14.9392 8.99404 14.5374 8.08042 13.89 7.3543C14.2551 7.10336 14.5486 6.70443 14.7981 6.25561C15.0781 5.75178 15.3117 5.16775 15.5291 4.62375L15.5291 4.62367C15.6164 4.40477 15.7154 4.18371 15.8126 3.96659L15.8252 3.93851L15.8252 3.93844L15.8268 3.93493C15.9516 3.65666 16.0703 3.39191 16.1579 3.15168C16.245 2.91277 16.3058 2.68647 16.3074 2.48592M1.14948 7.59649C1.20785 8.1061 1.74503 12.3364 3.1218 13.3185L1.14948 7.59649ZM16.3074 2.48592C16.3074 2.48672 16.3073 2.48753 16.3073 2.48834L16.1824 2.48278L16.3074 2.48348C16.3074 2.48429 16.3074 2.4851 16.3074 2.48592ZM3.4874 12.8112L3.48754 12.8111L3.48152 12.8068C3.26029 12.6514 3.04647 12.3354 2.84864 11.9056C2.65287 11.4804 2.48063 10.9617 2.33363 10.4217C2.04091 9.34638 1.85208 8.2009 1.77559 7.57405C1.77828 6.80356 1.93233 6.04108 2.22901 5.32994C2.52668 4.61644 2.96209 3.96862 3.51034 3.42354L3.51043 3.42345C4.02162 2.91412 4.62993 2.51268 5.29925 2.24297C5.96856 1.97326 6.68525 1.84077 7.40676 1.85336L7.40691 1.85336C8.26568 1.86731 9.34754 1.87318 10.458 1.87453C10.2754 3.17109 10.2362 4.48386 10.3412 5.78903C9.69339 5.79967 9.05447 5.9461 8.46593 6.21946C7.83576 6.51215 7.2795 6.94286 6.83835 7.47968C6.3972 8.0165 6.08247 8.64568 5.91745 9.32063C5.75836 9.97136 5.74236 10.6486 5.8702 11.3055C5.5553 11.5748 5.30225 11.8154 5.07953 12.0289C4.57253 12.5147 4.29331 12.7784 3.82117 12.8875C3.7634 12.9005 3.70345 12.9004 3.64571 12.8873C3.58792 12.8741 3.53382 12.8481 3.4874 12.8112ZM15.1398 3.63153L15.1398 3.63155L15.1344 3.64371C15.0325 3.87106 14.9258 4.1092 14.8314 4.34531L14.8314 4.34536C14.6128 4.89283 14.3841 5.46413 14.1222 5.92956C13.8753 6.36866 13.6135 6.68571 13.328 6.81382C12.6853 6.29536 11.9153 5.95891 11.0986 5.83937C10.9837 4.51775 11.0238 3.18723 11.2178 1.87491C12.6276 1.87454 14.0137 1.86699 14.9836 1.86039L14.984 1.86039C15.0625 1.85965 15.1404 1.87519 15.2126 1.90603C15.2848 1.93687 15.3499 1.98234 15.4037 2.03958L15.4948 1.95397L15.4037 2.03958C15.4575 2.09682 15.4989 2.16458 15.5252 2.23859C15.5515 2.31261 15.5622 2.39127 15.5566 2.46963L15.5563 2.4696V2.47852C15.5563 2.57971 15.5105 2.74405 15.4294 2.95597C15.3521 3.15789 15.25 3.38563 15.1474 3.6146L15.1398 3.63153ZM15.4275 14.8851C15.4276 14.8852 15.4276 14.8852 15.4277 14.8853C15.509 14.9677 15.5543 15.0788 15.554 15.1945C15.5536 15.3103 15.5075 15.4213 15.4256 15.5032C15.3437 15.5851 15.2328 15.6313 15.117 15.6317C15.0013 15.6321 14.8902 15.5867 14.8078 15.5056C14.8077 15.5055 14.8076 15.5054 14.8075 15.5053L13.3294 14.0272C13.5573 13.843 13.7674 13.6378 13.957 13.4143L15.4275 14.8851ZM14.3071 10.4226C14.307 11.191 14.0792 11.9422 13.6522 12.5811C13.2253 13.2201 12.6185 13.7181 11.9085 14.0122C11.1985 14.3063 10.4172 14.3832 9.66351 14.2333C8.90979 14.0834 8.21745 13.7133 7.67405 13.1699C7.13065 12.6265 6.76059 11.9342 6.61066 11.1805C6.46074 10.4267 6.53768 9.64548 6.83177 8.9355C7.12586 8.22551 7.62388 7.61867 8.26285 7.19172C8.90178 6.7648 9.65296 6.53692 10.4214 6.53689C11.4516 6.53811 12.4392 6.94789 13.1676 7.67633C13.8961 8.40477 14.3059 9.3924 14.3071 10.4226Z" fill="url(#paint3_linear_105_396)" stroke="url(#paint4_linear_105_396)" stroke-width="0.25"/>
<path d="M10.4199 6.86475H10.4198C9.71619 6.86475 9.02837 7.07339 8.44334 7.4643C7.85831 7.8552 7.40234 8.41081 7.13308 9.06086C6.86382 9.71091 6.79336 10.4262 6.93063 11.1163C7.0679 11.8064 7.40672 12.4403 7.90425 12.9378C8.40178 13.4353 9.03567 13.7742 9.72576 13.9114C10.4158 14.0487 11.1311 13.9782 11.7812 13.709C12.4313 13.4397 12.9869 12.9838 13.3778 12.3987C13.7687 11.8137 13.9773 11.1259 13.9773 10.4223V10.4221C13.9762 9.47898 13.6011 8.57479 12.9342 7.90789C12.2673 7.24099 11.3631 6.86585 10.4199 6.86475ZM10.4196 13.2287C9.86464 13.2287 9.3221 13.0641 8.86063 12.7557C8.39912 12.4473 8.03941 12.009 7.827 11.4962C7.61459 10.9834 7.55901 10.4192 7.6673 9.87476C7.77558 9.33037 8.04287 8.83031 8.43536 8.43783C8.82784 8.04534 9.3279 7.77805 9.87229 7.66977C10.4167 7.56148 10.981 7.61706 11.4938 7.82947C12.0066 8.04188 12.4449 8.40159 12.7533 8.8631C13.0616 9.32458 13.2262 9.86711 13.2262 10.4221C13.2253 11.1662 12.9294 11.8795 12.4032 12.4057C11.8771 12.9318 11.1637 13.2278 10.4196 13.2287Z" fill="url(#paint5_linear_105_396)" stroke="url(#paint6_linear_105_396)" stroke-width="0.25"/>
<defs>
<linearGradient id="paint0_linear_105_396" x1="4.5115" y1="2.72852" x2="4.5115" y2="4.24544" gradientUnits="userSpaceOnUse">
<stop stop-color="#05518F"/>
<stop offset="1" stop-color="#58ADDE"/>
</linearGradient>
<linearGradient id="paint1_linear_105_396" x1="10.2952" y1="6.98975" x2="10.2952" y2="13.7551" gradientUnits="userSpaceOnUse">
<stop stop-color="#05518F"/>
<stop offset="1" stop-color="#5CAEDC"/>
</linearGradient>
<linearGradient id="paint2_linear_105_396" x1="6.16045" y1="2.47998" x2="6.16045" y2="2.98108" gradientUnits="userSpaceOnUse">
<stop stop-color="#05518F"/>
<stop offset="1" stop-color="#58ADDE"/>
</linearGradient>
<linearGradient id="paint3_linear_105_396" x1="8.66653" y1="1.22656" x2="8.66653" y2="16.2507" gradientUnits="userSpaceOnUse">
<stop stop-color="#05518F"/>
<stop offset="1" stop-color="#58ADDE"/>
</linearGradient>
<linearGradient id="paint4_linear_105_396" x1="8.66653" y1="1.22656" x2="8.66653" y2="16.2507" gradientUnits="userSpaceOnUse">
<stop stop-color="#05518F"/>
<stop offset="1" stop-color="#58ADDE"/>
</linearGradient>
<linearGradient id="paint5_linear_105_396" x1="10.4198" y1="6.98975" x2="10.4198" y2="13.8548" gradientUnits="userSpaceOnUse">
<stop stop-color="#05518F"/>
<stop offset="1" stop-color="#58ADDE"/>
</linearGradient>
<linearGradient id="paint6_linear_105_396" x1="10.4198" y1="6.98975" x2="10.4198" y2="13.8548" gradientUnits="userSpaceOnUse">
<stop stop-color="#05518F"/>
<stop offset="1" stop-color="#58ADDE"/>
</linearGradient>
</defs>
</svg>
