<svg width="65" height="58" viewBox="0 0 65 58" fill="none" xmlns="http://www.w3.org/2000/svg">
<path d="M25.9021 30.1449L29.766 23.642C30.0807 23.1019 30.6747 22.7895 31.2985 22.8467C31.9279 22.8918 32.4665 23.2955 32.6958 23.8719L34.3835 28.1683L38.5666 16.4824C38.8115 15.8081 39.5074 15.3703 40.1988 15.4099C40.9246 15.4418 41.5363 15.9654 41.6959 16.6661L44.6534 29.4102L46.0585 25.5449C46.2834 24.9157 46.8818 24.4845 47.5555 24.4691C48.2492 24.4351 48.8487 24.853 49.1024 25.4723L50.6593 29.2331H60.2034C60.568 29.2331 60.8871 29.3695 61.1564 29.5675C67.9745 17.4844 66.0486 3.02659 52.7459 0.40099C37.4862 -2.60629 32.4997 12.2882 32.4997 12.2882C32.4997 12.2882 27.511 -2.60629 12.2491 0.40099C-1.2642 3.06949 -3.03162 17.9508 4.17881 30.1449H25.9021Z" fill="url(#paint0_linear_54_82)"/>
<path d="M49.6365 32.3497C48.9753 32.3497 48.388 31.9528 48.1352 31.3463L47.7775 30.4649L45.9372 35.6037C45.6988 36.2634 45.085 36.6946 44.4061 36.6946C44.3719 36.6946 44.3387 36.6902 44.3067 36.6847C43.5859 36.6492 42.9787 36.1303 42.8197 35.4263L39.8833 22.6087L36.1211 33.2388C35.8926 33.8808 35.2909 34.3121 34.6142 34.3276C33.9331 34.3276 33.3215 33.9185 33.0731 33.2843L31.0198 28.0058L28.3935 32.4727C28.1098 32.9694 27.5733 33.2721 26.996 33.2721H6.59419C6.92979 33.7189 7.28084 34.169 7.64072 34.5981C18.3102 47.4035 32.6393 57.4638 32.6393 57.4638C32.6393 57.4638 46.9661 47.4035 57.6323 34.5981C58.2395 33.8719 58.8102 33.1202 59.3478 32.3508H49.6365V32.3497Z" fill="url(#paint1_linear_54_82)"/>
<defs>
<linearGradient id="paint0_linear_54_82" x1="32.5" y1="0" x2="32.5" y2="30.1449" gradientUnits="userSpaceOnUse">
<stop stop-color="#58ADDE"/>
<stop offset="0.0001" stop-color="#58ADDE"/>
<stop offset="1" stop-color="#05518F" stop-opacity="0.84"/>
</linearGradient>
<linearGradient id="paint1_linear_54_82" x1="32.971" y1="22.6087" x2="32.971" y2="57.4638" gradientUnits="userSpaceOnUse">
<stop stop-color="#58ADDE"/>
<stop offset="0.0001" stop-color="#58ADDE"/>
<stop offset="1" stop-color="#05518F" stop-opacity="0.84"/>
</linearGradient>
</defs>
</svg>
