<svg width="60" height="53" viewBox="0 0 60 53" fill="none" xmlns="http://www.w3.org/2000/svg">
<g clip-path="url(#clip0_104_335)">
<path d="M58.5173 34.2634H57.0661V14.0831C57.0995 13.0776 56.9326 12.0756 56.5753 11.1367C56.218 10.1978 55.6776 9.34122 54.9863 8.61795C54.295 7.89469 53.4669 7.31954 52.5513 6.92673C51.6357 6.53392 50.6514 6.33149 49.6568 6.33149C48.6623 6.33149 47.6779 6.53392 46.7623 6.92673C45.8468 7.31954 45.0187 7.89469 44.3273 8.61795C43.636 9.34122 43.0956 10.1978 42.7383 11.1367C42.3811 12.0756 42.2142 13.0776 42.2476 14.0831V45.2397C42.267 46.4525 41.8103 47.6236 40.9778 48.4964C40.1452 49.3692 39.0046 49.8726 37.8058 49.8963H31.8845C30.6856 49.8726 29.5448 49.3691 28.7122 48.496C27.8796 47.623 27.4231 46.4516 27.4428 45.2387V43.5745H28.9338C29.1318 43.5709 29.3272 43.5279 29.5088 43.4479C29.6904 43.3679 29.8546 43.2525 29.9921 43.1083C30.1296 42.9641 30.2377 42.7939 30.3101 42.6074C30.3826 42.421 30.418 42.2219 30.4144 42.0216V36.6315L31.7766 36.4841C33.8776 36.2231 35.8087 35.1845 37.1977 33.5686C38.5867 31.9527 39.3352 29.8738 39.299 27.7328V4.65762C39.3183 3.44341 38.8606 2.27107 38.0262 1.398C37.1918 0.524932 36.0491 0.0225048 34.8488 0.0010376H17.0744C15.8749 0.0236144 14.7333 0.526529 13.8998 1.39948C13.0663 2.27242 12.6091 3.44414 12.6285 4.65762V27.7317C12.5923 29.8729 13.3409 31.9519 14.7301 33.5679C16.1193 35.1838 18.0507 36.2223 20.1519 36.4831L21.5141 36.6315V42.0269C21.5082 42.4305 21.6608 42.8201 21.9383 43.1102C22.2158 43.4002 22.5957 43.5672 22.9947 43.5745H24.4753V45.2302C24.4425 47.252 25.2034 49.2046 26.5913 50.6598C27.9791 52.1151 29.8807 52.9543 31.8793 52.9936H37.8006C39.799 52.9543 41.7005 52.115 43.0882 50.6598C44.476 49.2045 45.2366 47.2519 45.2035 45.2302V14.0736C45.181 13.4686 45.2794 12.8652 45.4928 12.2996C45.7061 11.7339 46.0301 11.2176 46.4452 10.7815C46.8604 10.3455 47.3582 9.99859 47.909 9.76165C48.4597 9.52472 49.0521 9.4026 49.6505 9.4026C50.249 9.4026 50.8414 9.52472 51.3921 9.76165C51.9428 9.99859 52.4407 10.3455 52.8558 10.7815C53.271 11.2176 53.595 11.7339 53.8083 12.2996C54.0217 12.8652 54.12 13.4686 54.0975 14.0736V34.2634H52.596C52.1963 34.2707 51.8157 34.4382 51.5381 34.7292C51.2604 35.0202 51.1084 35.4109 51.1154 35.8153V42.0237C51.1064 42.9793 51.3883 43.9146 51.9227 44.7027C52.4571 45.4908 53.2182 46.0935 54.1028 46.429V51.4492C54.0975 51.6493 54.1319 51.8485 54.204 52.0349C54.2761 52.2213 54.3843 52.3913 54.5224 52.5347C54.6604 52.6781 54.8255 52.7921 55.0078 52.87C55.1901 52.9478 55.386 52.9879 55.5839 52.9879C55.7818 52.9879 55.9777 52.9478 56.16 52.87C56.3423 52.7921 56.5074 52.6781 56.6454 52.5347C56.7835 52.3913 56.8917 52.2213 56.9638 52.0349C57.0359 51.8485 57.0703 51.6493 57.065 51.4492V46.4089C57.9354 46.0652 58.682 45.4622 59.2059 44.6796C59.7299 43.8971 60.0064 42.972 59.9989 42.0269V35.8174C60.0065 35.4135 59.8555 35.0231 59.5789 34.7318C59.3023 34.4405 58.9228 34.272 58.5236 34.2634H58.5173ZM15.5949 9.41914H36.3294V24.9481H15.5949V9.41914ZM17.0755 3.10366H34.8488C35.2485 3.11174 35.6287 3.27969 35.9062 3.57075C36.1837 3.8618 36.3359 4.25224 36.3294 4.65656V6.3144H15.5949V4.65762C15.5884 4.2533 15.7406 3.86286 16.0181 3.57181C16.2956 3.28075 16.6758 3.1128 17.0755 3.10472V3.10366ZM23.1529 33.6857L20.4589 33.391C19.1536 33.2306 17.9475 32.6048 17.0572 31.6258C16.1669 30.6469 15.6507 29.379 15.6012 28.0497H36.32C36.2706 29.3788 35.7545 30.6466 34.8644 31.6255C33.9743 32.6044 32.7685 33.2304 31.4633 33.391L28.7787 33.6847C28.4082 33.7314 28.0678 33.9148 27.8228 34.1999C27.5778 34.4849 27.4454 34.8514 27.4511 35.2291V40.4708H24.4795V35.2323C24.4849 34.8545 24.3523 34.488 24.1072 34.203C23.862 33.918 23.5214 33.7345 23.1508 33.6878L23.1529 33.6857ZM54.0797 37.365H57.0409V42.0226C57.0484 42.224 57.0157 42.4249 56.9446 42.6133C56.8736 42.8016 56.7657 42.9735 56.6275 43.1187C56.4893 43.2639 56.3235 43.3794 56.1402 43.4583C55.9568 43.5372 55.7596 43.5778 55.5603 43.5778C55.3611 43.5778 55.1638 43.5372 54.9805 43.4583C54.7971 43.3794 54.6314 43.2639 54.4931 43.1187C54.3549 42.9735 54.247 42.8016 54.176 42.6133C54.105 42.4249 54.0722 42.224 54.0797 42.0226V37.365Z" fill="url(#paint0_linear_104_335)"/>
<path d="M18.7499 17.0819C18.7499 12.3329 14.9443 8.48315 10.2499 8.48315C5.55547 8.48315 1.74988 12.3329 1.74988 17.0819V33.3645C1.74988 38.1135 5.55547 41.9633 10.2499 41.9633C14.9443 41.9633 18.7499 38.1135 18.7499 33.3645V17.0819Z" fill="white"/>
<path d="M28.4267 16.1067H27.1473V14.8082C27.1522 14.6351 27.1227 14.4627 27.0606 14.3012C26.9984 14.1398 26.905 13.9926 26.7856 13.8684C26.6663 13.7442 26.5235 13.6454 26.3658 13.578C26.2081 13.5106 26.0386 13.4758 25.8673 13.4758C25.6961 13.4758 25.5266 13.5106 25.3689 13.578C25.2112 13.6454 25.0684 13.7442 24.9491 13.8684C24.8297 13.9926 24.7362 14.1398 24.6741 14.3012C24.612 14.4627 24.5825 14.6351 24.5874 14.8082V16.1067H23.308C23.1369 16.1017 22.9664 16.1316 22.8069 16.1944C22.6473 16.2573 22.5018 16.3518 22.379 16.4726C22.2562 16.5933 22.1586 16.7377 22.0919 16.8972C22.0253 17.0568 21.9909 17.2283 21.9909 17.4015C21.9909 17.5747 22.0253 17.7462 22.0919 17.9057C22.1586 18.0653 22.2562 18.2097 22.379 18.3304C22.5018 18.4512 22.6473 18.5457 22.8069 18.6086C22.9664 18.6714 23.1369 18.7012 23.308 18.6963H24.5874V19.9874C24.5969 20.3243 24.736 20.6443 24.975 20.8792C25.214 21.1142 25.5341 21.2456 25.8673 21.2456C26.2006 21.2456 26.5207 21.1142 26.7597 20.8792C26.9987 20.6443 27.1377 20.3243 27.1473 19.9874V18.6973H28.4267C28.7598 18.6877 29.0761 18.5471 29.3083 18.3053C29.5406 18.0635 29.6705 17.7397 29.6705 17.4025C29.6705 17.0654 29.5406 16.7416 29.3083 16.4998C29.0761 16.258 28.7598 16.1174 28.4267 16.1078V16.1067Z" fill="#53ACE0"/>
<path d="M2.85535 9.06295C1.94742 9.97545 1.22752 11.0612 0.737387 12.2571C0.24725 13.4531 -0.00338678 14.7356 5.77886e-07 16.0303V35.3223C-0.0405982 36.6421 0.181296 37.9566 0.652515 39.1879C1.12373 40.4193 1.83467 41.5423 2.74314 42.4904C3.65161 43.4384 4.73909 44.1922 5.94104 44.707C7.14299 45.2217 8.43491 45.487 9.74014 45.487C11.0454 45.487 12.3373 45.2217 13.5392 44.707C14.7412 44.1922 15.8287 43.4384 16.7371 42.4904C17.6456 41.5423 18.3565 40.4193 18.8278 39.1879C19.299 37.9566 19.5209 36.6421 19.4803 35.3223V16.0303C19.4776 14.0831 18.9048 12.1803 17.8343 10.5619C16.7638 8.94356 15.2435 7.68219 13.4652 6.9369C11.6868 6.19161 9.73012 5.9958 7.84191 6.37418C5.95369 6.75255 4.21854 7.68815 2.85535 9.06295ZM4.49625 28.8945V35.3255C4.4943 36.0227 4.62906 36.7133 4.89274 37.3574C5.15641 38.0015 5.54377 38.5863 6.03238 39.0779C6.15931 39.2227 6.2267 39.411 6.22075 39.6044C6.2148 39.7978 6.13595 39.9816 6.00036 40.1181C5.86478 40.2546 5.68272 40.3334 5.49152 40.3385C5.30031 40.3436 5.11443 40.2745 4.97197 40.1453C4.3437 39.5134 3.84562 38.7616 3.50657 37.9335C3.16753 37.1054 2.99426 36.2176 2.9968 35.3213V28.8945C2.9968 28.6935 3.07574 28.5007 3.21624 28.3586C3.35674 28.2164 3.54731 28.1366 3.74601 28.1366C3.94471 28.1366 4.13527 28.2164 4.27577 28.3586C4.41627 28.5007 4.49521 28.6935 4.49521 28.8945H4.49625ZM16.4845 16.0325V24.9216H2.9968V16.0303C2.9968 14.221 3.70732 12.4857 4.97203 11.2063C6.23675 9.92693 7.95208 9.20817 9.74066 9.20817C11.5292 9.20817 13.2446 9.92693 14.5093 11.2063C15.774 12.4857 16.4845 14.221 16.4845 16.0303V16.0325Z" fill="url(#paint1_linear_104_335)"/>
<path d="M15.3162 25.6838H2.44565V40.9043H15.3162V25.6838Z" fill="url(#paint2_linear_104_335)"/>
</g>
<defs>
<linearGradient id="paint0_linear_104_335" x1="36.3132" y1="0.0010376" x2="36.3132" y2="52.9936" gradientUnits="userSpaceOnUse">
<stop stop-color="#05518F"/>
<stop offset="1" stop-color="#53ACE0"/>
</linearGradient>
<linearGradient id="paint1_linear_104_335" x1="9.74014" y1="6.18628" x2="9.74014" y2="45.487" gradientUnits="userSpaceOnUse">
<stop stop-color="#05518F"/>
<stop offset="1" stop-color="#58ADDE"/>
</linearGradient>
<linearGradient id="paint2_linear_104_335" x1="8.88092" y1="25.6838" x2="8.88092" y2="40.9043" gradientUnits="userSpaceOnUse">
<stop stop-color="#05518F"/>
<stop offset="1" stop-color="#58ADDE"/>
</linearGradient>
<clipPath id="clip0_104_335">
<rect width="60" height="53" fill="white"/>
</clipPath>
</defs>
</svg>
