<svg width="53" height="53" viewBox="0 0 53 53" fill="none" xmlns="http://www.w3.org/2000/svg">
<path d="M43.0484 11.7395C46.2902 11.7395 48.9181 9.11149 48.9181 5.86974C48.9181 2.62798 46.2902 0 43.0484 0C39.8066 0 37.1787 2.62798 37.1787 5.86974C37.1787 7.93023 38.2413 9.74164 39.8476 10.7889L36.1102 20.8029C35.4402 20.6525 34.744 20.5704 34.0285 20.5704C31.7 20.5704 29.5691 21.4126 27.9204 22.8069L15.627 11.7195C16.1581 10.806 16.464 9.74522 16.464 8.61254C16.464 5.19331 13.6923 2.4216 10.2731 2.4216C6.85383 2.4216 4.08212 5.19331 4.08212 8.61254C4.08212 12.0318 6.85383 14.8035 10.2731 14.8035C11.6344 14.8035 12.8921 14.3631 13.914 13.6184L26.2062 24.705C25.1686 26.2238 24.561 28.0598 24.561 30.0379C24.561 32.4245 25.4458 34.6029 26.9031 36.268L18.6721 42.5847C17.6473 41.7249 16.3267 41.2063 14.8843 41.2063C11.6275 41.2063 8.98747 43.8463 8.98747 47.1032C8.98747 50.36 11.6277 53 14.8843 53C18.1412 53 20.7812 50.3597 20.7812 47.1032C20.7812 46.2129 20.5827 45.3695 20.2298 44.613L28.8753 37.9784C30.3586 38.943 32.1273 39.5054 34.0287 39.5054C39.2573 39.5054 43.4962 35.2668 43.4962 30.0379C43.4962 26.4294 41.4769 23.293 38.507 21.6957L42.2438 11.6832C42.5067 11.7193 42.7753 11.7395 43.0484 11.7395Z" fill="url(#paint0_radial_464_84)"/>
<defs>
<radialGradient id="paint0_radial_464_84" cx="0" cy="0" r="1" gradientUnits="userSpaceOnUse" gradientTransform="translate(26.5001 26.5) rotate(90) scale(26.5 22.418)">
<stop stop-color="#05518F"/>
<stop offset="1" stop-color="#58ADDE"/>
</radialGradient>
</defs>
</svg>
