<svg width="45" height="40" viewBox="0 0 45 40" fill="none" xmlns="http://www.w3.org/2000/svg">
<path d="M43.3462 25.8594H42.2712V10.629C42.2959 9.87011 42.1723 9.11386 41.9076 8.40525C41.643 7.69664 41.2427 7.05017 40.7306 6.50431C40.2185 5.95845 39.6051 5.52437 38.9269 5.22791C38.2487 4.93146 37.5195 4.77868 36.7828 4.77868C36.0462 4.77868 35.317 4.93146 34.6388 5.22791C33.9606 5.52437 33.3472 5.95845 32.8351 6.50431C32.323 7.05017 31.9227 7.69664 31.658 8.40525C31.3934 9.11386 31.2698 9.87011 31.2945 10.629V34.1434C31.3089 35.0587 30.9706 35.9425 30.3539 36.6012C29.7372 37.26 28.8923 37.6399 28.0043 37.6578H23.6182C22.7301 37.6399 21.885 37.2599 21.2683 36.601C20.6516 35.942 20.3134 35.058 20.328 34.1426V32.8866H21.4325C21.5792 32.8839 21.7239 32.8514 21.8584 32.791C21.9929 32.7307 22.1145 32.6436 22.2164 32.5347C22.3182 32.4259 22.3983 32.2975 22.452 32.1567C22.5056 32.016 22.5319 31.8658 22.5292 31.7146V27.6466L23.5382 27.5354C25.0945 27.3384 26.525 26.5545 27.5539 25.335C28.5828 24.1154 29.1372 22.5465 29.1104 20.9306V3.51538C29.1247 2.599 28.7856 1.71421 28.1676 1.05529C27.5495 0.396369 26.703 0.0171782 25.814 0.000976562H12.6477C11.7592 0.0180157 10.9135 0.397573 10.2962 1.0564C9.67877 1.71523 9.34011 2.59954 9.35444 3.51538V20.9298C9.32762 22.5458 9.88219 24.1148 10.9112 25.3344C11.9403 26.554 13.3709 27.3377 14.9274 27.5346L15.9364 27.6466V31.7186C15.932 32.0232 16.045 32.3172 16.2506 32.5362C16.4562 32.7551 16.7376 32.8811 17.0331 32.8866H18.1299V34.1362C18.1055 35.6621 18.6692 37.1357 19.6972 38.234C20.7253 39.3323 22.1339 39.9657 23.6143 39.9954H28.0004C29.4808 39.9657 30.8893 39.3323 31.9172 38.234C32.9452 37.1356 33.5086 35.662 33.4841 34.1362V10.6218C33.4674 10.1652 33.5403 9.70979 33.6984 9.28289C33.8564 8.85598 34.0964 8.46632 34.4039 8.1372C34.7114 7.80809 35.0802 7.5463 35.4881 7.36748C35.8961 7.18866 36.3349 7.09649 36.7782 7.09649C37.2215 7.09649 37.6603 7.18866 38.0682 7.36748C38.4762 7.5463 38.845 7.80809 39.1525 8.1372C39.46 8.46632 39.7 8.85598 39.858 9.28289C40.0161 9.70979 40.0889 10.1652 40.0723 10.6218V25.8594H38.96C38.6639 25.8648 38.382 25.9913 38.1764 26.2109C37.9707 26.4306 37.8581 26.7254 37.8633 27.0306V31.7162C37.8566 32.4374 38.0654 33.1433 38.4613 33.7381C38.8571 34.3329 39.4209 34.7877 40.0761 35.041V38.8298C40.0722 38.9808 40.0977 39.1311 40.1511 39.2718C40.2045 39.4125 40.2847 39.5408 40.387 39.649C40.4892 39.7573 40.6115 39.8433 40.7465 39.9021C40.8816 39.9608 41.0267 39.9911 41.1733 39.9911C41.3198 39.9911 41.4649 39.9608 41.6 39.9021C41.735 39.8433 41.8573 39.7573 41.9596 39.649C42.0618 39.5408 42.142 39.4125 42.1954 39.2718C42.2488 39.1311 42.2743 38.9808 42.2704 38.8298V35.0258C42.9151 34.7664 43.4681 34.3113 43.8562 33.7207C44.2443 33.1301 44.4492 32.4319 44.4437 31.7186V27.0322C44.4493 26.7274 44.3374 26.4327 44.1325 26.2129C43.9276 25.993 43.6465 25.8659 43.3508 25.8594H43.3462ZM11.5518 7.10898H26.9107V18.829H11.5518V7.10898ZM12.6485 2.34258H25.814C26.11 2.34867 26.3916 2.47543 26.5972 2.6951C26.8028 2.91476 26.9155 3.20943 26.9107 3.51458V4.76578H11.5518V3.51538C11.547 3.21023 11.6597 2.91556 11.8653 2.6959C12.0709 2.47623 12.3525 2.34947 12.6485 2.34338V2.34258ZM17.1503 25.4234L15.1548 25.201C14.1879 25.0799 13.2945 24.6076 12.635 23.8687C11.9755 23.1299 11.5931 22.173 11.5564 21.1698H26.9037C26.8671 22.1729 26.4848 23.1297 25.8255 23.8685C25.1662 24.6073 24.2729 25.0797 23.3062 25.201L21.3176 25.4226C21.0431 25.4578 20.791 25.5963 20.6095 25.8114C20.428 26.0265 20.33 26.3031 20.3342 26.5882V30.5442H18.133V26.5906C18.137 26.3055 18.0388 26.0288 17.8572 25.8138C17.6756 25.5987 17.4233 25.4602 17.1488 25.425L17.1503 25.4234ZM40.0591 28.2002H42.2525V31.7154C42.2581 31.8674 42.2338 32.019 42.1812 32.1612C42.1286 32.3033 42.0487 32.433 41.9463 32.5426C41.8439 32.6522 41.7211 32.7393 41.5853 32.7989C41.4495 32.8584 41.3034 32.8891 41.1558 32.8891C41.0082 32.8891 40.8621 32.8584 40.7263 32.7989C40.5905 32.7393 40.4677 32.6522 40.3653 32.5426C40.2629 32.433 40.183 32.3033 40.1304 32.1612C40.0778 32.019 40.0535 31.8674 40.0591 31.7154V28.2002Z" fill="#53ACE0"/>
<path d="M13.8888 12.8919C13.8888 9.30784 11.0699 6.40234 7.59252 6.40234C4.11516 6.40234 1.2962 9.30784 1.2962 12.8919V25.1807C1.2962 28.7648 4.11516 31.6703 7.59252 31.6703C11.0699 31.6703 13.8888 28.7648 13.8888 25.1807V12.8919Z" fill="white"/>
<path d="M21.0568 12.1565H20.1091V11.1765C20.1127 11.0458 20.0909 10.9157 20.0449 10.7939C19.9988 10.672 19.9296 10.5609 19.8412 10.4672C19.7528 10.3734 19.6471 10.2989 19.5302 10.248C19.4134 10.1971 19.2878 10.1709 19.161 10.1709C19.0342 10.1709 18.9086 10.1971 18.7918 10.248C18.6749 10.2989 18.5692 10.3734 18.4808 10.4672C18.3924 10.5609 18.3231 10.672 18.2771 10.7939C18.2311 10.9157 18.2093 11.0458 18.2129 11.1765V12.1565H17.2652C17.1384 12.1527 17.0122 12.1752 16.894 12.2227C16.7758 12.2701 16.668 12.3415 16.577 12.4326C16.4861 12.5237 16.4138 12.6327 16.3644 12.7531C16.315 12.8735 16.2896 13.0029 16.2896 13.1337C16.2896 13.2644 16.315 13.3938 16.3644 13.5142C16.4138 13.6346 16.4861 13.7436 16.577 13.8347C16.668 13.9259 16.7758 13.9972 16.894 14.0447C17.0122 14.0921 17.1384 14.1146 17.2652 14.1109H18.2129V15.0853C18.22 15.3396 18.3229 15.5811 18.5 15.7584C18.677 15.9357 18.9141 16.0349 19.161 16.0349C19.4079 16.0349 19.645 15.9357 19.822 15.7584C19.999 15.5811 20.102 15.3396 20.1091 15.0853V14.1117H21.0568C21.3036 14.1044 21.5378 13.9982 21.7099 13.8158C21.8819 13.6333 21.9782 13.3889 21.9782 13.1345C21.9782 12.88 21.8819 12.6356 21.7099 12.4532C21.5378 12.2707 21.3036 12.1645 21.0568 12.1573V12.1565Z" fill="#53ACE0"/>
<path d="M2.11506 6.84002C1.44251 7.5287 0.90926 8.34809 0.546196 9.25073C0.183131 10.1534 -0.00252568 11.1213 -1.65261e-05 12.0984V26.6584C-0.0300897 27.6544 0.134277 28.6466 0.483328 29.5759C0.832379 30.5052 1.359 31.3527 2.03194 32.0682C2.70488 32.7838 3.51042 33.3527 4.40075 33.7412C5.29108 34.1297 6.24807 34.3298 7.2149 34.3298C8.18173 34.3298 9.13872 34.1297 10.029 33.7412C10.9194 33.3527 11.7249 32.7838 12.3979 32.0682C13.0708 31.3527 13.5974 30.5052 13.9465 29.5759C14.2955 28.6466 14.4599 27.6544 14.4298 26.6584V12.0984C14.4278 10.6288 14.0035 9.1927 13.2106 7.97131C12.4176 6.74992 11.2915 5.79793 9.97417 5.23545C8.65689 4.67297 7.20748 4.52519 5.8088 4.81075C4.41013 5.09632 3.12483 5.80243 2.11506 6.84002ZM3.33054 21.8072V26.6608C3.32909 27.187 3.42892 27.7082 3.62423 28.1943C3.81955 28.6804 4.10648 29.1218 4.46841 29.4928C4.56243 29.6021 4.61235 29.7442 4.60794 29.8902C4.60354 30.0362 4.54513 30.1749 4.4447 30.2779C4.34426 30.3809 4.20941 30.4404 4.06777 30.4442C3.92614 30.448 3.78845 30.3959 3.68292 30.2984C3.21754 29.8215 2.84859 29.2541 2.59744 28.6291C2.3463 28.0042 2.21795 27.3341 2.21984 26.6576V21.8072C2.21984 21.6555 2.27831 21.51 2.38238 21.4028C2.48646 21.2955 2.62762 21.2352 2.7748 21.2352C2.92199 21.2352 3.06314 21.2955 3.16722 21.4028C3.2713 21.51 3.32977 21.6555 3.32977 21.8072H3.33054ZM12.2107 12.1V18.8088H2.21984V12.0984C2.21984 10.7329 2.74614 9.42326 3.68297 8.45767C4.6198 7.49208 5.89041 6.94962 7.21529 6.94962C8.54016 6.94962 9.81077 7.49208 10.7476 8.45767C11.6844 9.42326 12.2107 10.7329 12.2107 12.0984V12.1Z" fill="#53ACE0"/>
<path d="M11.3453 19.3838H1.81158V30.871H11.3453V19.3838Z" fill="#53ACE0"/>
</svg>
