<svg width="93" height="45" viewBox="0 0 93 45" fill="none" xmlns="http://www.w3.org/2000/svg"><g clip-path="url(#piv knockout logo__a)" fill="white"><path d="M.23 39.084h.471v1.489h1.852v-1.49h.476v3.561h-.476v-1.667H.701v1.667h-.47v-3.56Zm4.533 3.56V41.34c0-.036-.005-.072-.025-.097l-1.254-2.16h.542c.323.579.84 1.5 1.003 1.812.153-.307.685-1.233 1.018-1.811h.507l-1.295 2.169a.174.174 0 0 0-.02.092v1.3h-.476Zm2.2-3.56h1.27c1.002 0 1.677.685 1.677 1.744 0 1.06-.66 1.816-1.693 1.816H6.964v-3.56Zm.47 3.161h.748c.839 0 1.233-.604 1.233-1.406 0-.701-.363-1.35-1.233-1.35h-.747v2.757Zm3.684-1.166v1.565h-.465v-3.56h1.391c.732 0 1.12.398 1.12.95 0 .466-.265.747-.608.84.292.076.542.296.542.91v.154c0 .245-.01.557.051.706h-.46c-.067-.154-.062-.43-.062-.768v-.071c0-.507-.143-.726-.782-.726h-.727Zm0-.4h.773c.547 0 .782-.204.782-.603 0-.4-.245-.594-.726-.594h-.829v1.197Zm3.377.896-.383 1.07h-.471l1.269-3.561h.578l1.325 3.56h-.507l-.394-1.069h-1.417Zm1.3-.404c-.344-.936-.528-1.433-.605-1.704h-.005c-.087.302-.296.906-.567 1.704h1.176Zm1.876-1.683h-1.145v-.404h2.773v.404h-1.151v3.156h-.476v-3.156Zm2.61-.404v3.56h-.47v-3.56h.47Zm4.042 1.76c0 .982-.548 1.852-1.668 1.852-1.048 0-1.632-.809-1.632-1.832 0-1.023.593-1.832 1.673-1.832 1.002 0 1.627.752 1.627 1.811Zm-2.803.005c0 .767.389 1.442 1.155 1.442.824 0 1.156-.68 1.156-1.437 0-.758-.373-1.417-1.156-1.417-.782 0-1.155.655-1.155 1.412Zm3.545 1.795v-3.56h.624c.511.834 1.621 2.604 1.82 2.987h.006c-.036-.455-.031-1.018-.031-1.596v-1.391h.445v3.56h-.588c-.47-.772-1.626-2.675-1.847-3.074h-.01c.026.404.026 1.008.026 1.652v1.422h-.446Zm8.19-2.256-.906 1.33.941.926h-.608l-.583-.573c-.317.405-.614.625-1.136.625-.665 0-1.013-.481-1.013-.942 0-.409.184-.69.767-1.048-.256-.266-.424-.476-.424-.809 0-.46.322-.864.895-.864.527 0 .86.373.86.818 0 .358-.215.594-.696.885l.721.711.701-1.058h.481Zm-1.427 1.417-.87-.855c-.43.282-.542.471-.542.758 0 .312.25.588.583.588.332 0 .527-.108.829-.491Zm-1.105-1.934c0 .21.133.384.394.64.41-.272.512-.425.512-.656 0-.245-.149-.475-.446-.475-.276 0-.46.179-.46.491Zm5.146 2.773-.957-3.56h.502c.276 1.166.66 2.64.726 3.044h.005c.092-.456.583-2.133.814-3.044h.46c.215.798.701 2.604.778 3.028h.005c.117-.614.614-2.297.808-3.028h.466l-1.039 3.56h-.506c-.215-.818-.67-2.517-.758-2.941h-.005c-.107.532-.567 2.123-.792 2.941h-.507Zm6.42-1.662h-1.77v1.258h1.945l-.062.404h-2.343v-3.56h2.318v.404h-1.857v1.09h1.77v.404Zm.825-1.898h.47v3.156h1.857l-.066.404h-2.261v-3.56Zm2.839 0h.47v3.156h1.857l-.066.404h-2.261v-3.56Zm2.839 3.56v-3.56h.624c.512.834 1.622 2.604 1.821 2.987h.006c-.036-.455-.031-1.018-.031-1.596v-1.391h.445v3.56h-.588c-.47-.772-1.627-2.675-1.847-3.074h-.01c.025.404.025 1.008.025 1.652v1.422h-.445Zm6.068-1.662h-1.77v1.258h1.944l-.061.404h-2.344v-3.56h2.318v.404h-1.857v1.09h1.77v.404Zm1.079.67c.097.43.389.66.906.66.552 0 .772-.26.772-.599 0-.358-.173-.557-.885-.726-.839-.205-1.13-.491-1.13-.992 0-.532.389-.962 1.181-.962.85 0 1.197.491 1.249.956h-.481c-.066-.312-.261-.573-.783-.573-.434 0-.675.195-.675.532s.2.466.824.62c1.013.245 1.192.638 1.192 1.099 0 .573-.425 1.023-1.295 1.023-.87 0-1.279-.491-1.355-1.038h.48Zm3.131 0c.097.43.389.66.906.66.552 0 .772-.26.772-.599 0-.358-.174-.557-.885-.726-.839-.205-1.13-.491-1.13-.992 0-.532.389-.962 1.181-.962.85 0 1.197.491 1.248.956h-.48c-.067-.312-.261-.573-.783-.573-.434 0-.675.195-.675.532s.2.466.824.62c1.013.245 1.191.638 1.191 1.099 0 .573-.424 1.023-1.294 1.023-.87 0-1.279-.491-1.355-1.038h.48ZM3.85 25.756v3.841c0 .83.09 1.345.27 1.546.243.286.612.428 1.106.428h.5v.36H.136v-.36h.49c.552 0 .947-.181 1.184-.545.129-.2.193-.677.193-1.429V21.08c0-.83-.086-1.345-.26-1.547-.25-.285-.622-.427-1.116-.427H.135v-.36h4.783c1.168 0 2.09.121 2.762.364a3.803 3.803 0 0 1 1.704 1.23c.462.578.693 1.262.693 2.052 0 1.077-.351 1.952-1.054 2.626-.702.674-1.696 1.011-2.979 1.011-.314 0-.654-.022-1.02-.068a13.049 13.049 0 0 1-1.175-.204Zm0-.555c.34.066.641.114.905.147a5.7 5.7 0 0 0 .673.048c.668 0 1.244-.26 1.728-.783.484-.521.727-1.197.727-2.027 0-.57-.116-1.1-.347-1.59-.23-.49-.558-.856-.982-1.099a2.85 2.85 0 0 0-1.443-.365c-.327 0-.748.062-1.261.185v5.485Z"/><path fill-rule="evenodd" clip-rule="evenodd" d="M0 18.61h4.918c1.175 0 2.114.123 2.808.373a3.937 3.937 0 0 1 1.763 1.273c.482.602.723 1.317.723 2.136 0 1.108-.364 2.02-1.096 2.723-.734.705-1.765 1.048-3.072 1.048-.32 0-.666-.023-1.037-.069-.322-.04-.663-.097-1.023-.171v3.675c0 .41.023.739.066.986.044.252.106.4.17.47v.001l.002.001c.21.247.536.381 1.004.381h.635v.63H0v-.63h.625c.52 0 .865-.169 1.071-.483.048-.075.093-.22.125-.453.03-.23.047-.53.047-.904V21.08c0-.411-.022-.739-.064-.986-.042-.253-.102-.4-.163-.472-.218-.247-.548-.381-1.015-.381H0v-.63Zm3.984 7.038v-.026H2.598l1.117.243v3.733c0 .418.023.763.07 1.032.045.262.118.472.233.602.277.324.689.474 1.208.474h.366v.091H.27v-.09h.356c.584 0 1.028-.195 1.297-.607h.001c.08-.127.132-.321.164-.563.034-.247.05-.56.05-.94V21.08c0-.418-.022-.763-.067-1.03-.044-.264-.114-.474-.226-.604-.284-.323-.698-.474-1.218-.474H.269v-.091h4.65c1.16 0 2.063.121 2.716.356.65.235 1.197.63 1.644 1.188.441.552.664 1.205.664 1.968 0 1.044-.34 1.882-1.013 2.529-.67.643-1.626.973-2.886.973-.308 0-.642-.022-1.004-.067-.33-.04-.682-.1-1.056-.18Zm-.165-6.061c.518-.124.95-.189 1.292-.189.56 0 1.064.127 1.51.383.45.258.796.646 1.037 1.158.24.509.36 1.058.36 1.647 0 .858-.252 1.569-.763 2.12-.508.547-1.119.825-1.827.825-.193 0-.423-.016-.69-.05a14.409 14.409 0 0 1-.913-.147l.025-.132h-.135v-5.59l.104-.025Zm.165 5.503v-5.266c.462-.105.836-.157 1.127-.157.518 0 .975.117 1.377.347.397.228.706.572.926 1.04.222.47.334.98.334 1.532 0 .802-.233 1.444-.69 1.936-.462.497-1.002.74-1.63.74a5.45 5.45 0 0 1-.657-.047c-.231-.03-.493-.07-.787-.125Z"/><path d="M24.246 31.93h-3.484l-4.418-6.164c-.327.013-.594.019-.799.019a8.737 8.737 0 0 1-.568-.02v3.832c0 .83.09 1.345.27 1.546.244.285.61.428 1.098.428h.51v.36h-5.592v-.36h.49c.552 0 .947-.182 1.184-.545.135-.201.202-.678.202-1.43v-8.518c0-.83-.09-1.345-.27-1.546-.25-.285-.621-.428-1.116-.428h-.49v-.36h4.754c1.386 0 2.408.103 3.066.307a3.5 3.5 0 0 1 1.674 1.128c.459.548.688 1.2.688 1.959 0 .81-.261 1.513-.784 2.11-.523.596-1.333 1.017-2.43 1.264l2.694 3.783c.617.868 1.146 1.446 1.589 1.73.442.286 1.02.468 1.732.546v.36Zm-9.269-6.777c.122 0 .228.002.317.005.09.003.164.005.222.005 1.245 0 2.183-.273 2.815-.817.632-.544.948-1.238.948-2.08 0-.844-.255-1.494-.765-2.01-.51-.514-1.186-.772-2.026-.772-.373 0-.876.062-1.511.185v5.485-.001Z"/><path fill-rule="evenodd" clip-rule="evenodd" d="M11.128 18.61h4.89c1.388 0 2.427.102 3.105.312a3.639 3.639 0 0 1 1.737 1.17c.48.574.72 1.258.72 2.046 0 .842-.273 1.577-.818 2.199-.516.588-1.29 1.004-2.306 1.26l2.58 3.62c.613.866 1.13 1.425 1.55 1.696.42.27.976.447 1.675.524l.12.013v.615h-3.688l-4.416-6.162c-.296.011-.54.017-.732.017a7.269 7.269 0 0 1-.433-.012v3.689c0 .41.022.739.065.986.044.252.107.4.17.47l.001.001.001.002c.211.246.534.38.995.38h.645v.63h-5.861v-.63h.625c.52 0 .866-.169 1.072-.484v-.001c.05-.074.098-.218.13-.452.033-.23.05-.53.05-.902v-8.519a5.97 5.97 0 0 0-.066-.985c-.044-.253-.106-.4-.17-.471v-.001c-.218-.248-.548-.382-1.016-.382h-.625v-.63Zm.27.269v.09h.355c.52 0 .934.151 1.217.474.116.13.189.34.234.604.047.268.07.613.07 1.031v8.519c0 .379-.017.693-.052.94-.034.242-.088.436-.172.563-.27.411-.714.605-1.297.605h-.356v.091h5.323v-.09h-.375c-.515 0-.923-.152-1.2-.474-.115-.13-.187-.34-.233-.603a6.21 6.21 0 0 1-.07-1.032v-3.875.002-6.166l.109-.021c.639-.124 1.152-.188 1.537-.188.87 0 1.582.268 2.122.813.538.544.804 1.23.804 2.103 0 .882-.333 1.613-.995 2.183-.666.574-1.642.85-2.903.85-.06 0-.136-.002-.226-.006a8.048 8.048 0 0 0-.23-.004l-.168.337.095.006c.1.007.198.011.293.014.095.004.183.006.265.006.203 0 .467-.007.794-.02l.072-.003 4.42 6.168h3.28v-.106c-.672-.086-1.23-.268-1.67-.55-.466-.3-1.007-.896-1.625-1.767l-2.813-3.948.198-.044c1.08-.243 1.86-.654 2.359-1.222a2.962 2.962 0 0 0 .75-2.021c0-.729-.219-1.35-.656-1.873a3.37 3.37 0 0 0-1.611-1.086c-.638-.197-1.643-.3-3.026-.3h-4.62Zm3.713 6.14c.069 0 .132.002.188.004.09.003.162.005.217.005 1.228 0 2.13-.269 2.727-.784.602-.518.901-1.175.901-1.979 0-.812-.244-1.426-.726-1.913-.48-.486-1.12-.733-1.93-.733-.339 0-.796.053-1.377.161v5.239Z"/><path d="m39.889 31.93-5.044-11.095v8.81c0 .81.087 1.316.26 1.517.238.273.613.409 1.126.409h.462v.36H32.15v-.36h.462c.552 0 .943-.169 1.174-.506.141-.207.212-.68.212-1.42V21.03c0-.584-.064-1.005-.193-1.264-.09-.188-.255-.346-.495-.472s-.628-.19-1.16-.19v-.36h3.696l4.735 10.318 4.659-10.317h3.696v.36h-.453c-.558 0-.952.168-1.184.505-.14.208-.211.681-.211 1.42v8.615c0 .81.09 1.316.27 1.517.237.273.612.409 1.126.409h.452v.36h-5.544v-.36h.462c.558 0 .95-.169 1.174-.506.141-.207.212-.68.212-1.42v-8.81l-5.034 11.096h-.317Z"/><path fill-rule="evenodd" clip-rule="evenodd" d="M32.016 18.61h3.916l4.648 10.127 4.573-10.127h3.917v.63h-.587c-.53 0-.875.159-1.072.446-.053.078-.103.224-.137.455a6.248 6.248 0 0 0-.052.889v8.616c0 .4.023.721.066.963.044.247.106.392.17.464l.001.001c.202.232.533.362 1.024.362h.587v.63h-5.813v-.63h.597c.531 0 .871-.16 1.062-.446.054-.078.103-.224.138-.455.034-.228.051-.523.051-.89v-8.187l-4.812 10.607h-.404v-.134l-.123.055-4.786-10.53v8.19c0 .4.022.721.063.964.042.247.102.393.164.464.203.232.533.362 1.024.362h.597v.63h-4.813v-.63h.597c.524 0 .865-.159 1.063-.447.053-.078.102-.223.137-.454.034-.228.051-.523.051-.89V21.03c0-.58-.064-.974-.178-1.204v-.001l-.001-.001c-.074-.155-.214-.294-.437-.41-.21-.111-.57-.175-1.097-.175h-.134v-.629Zm7.96 13.186h.143l5.255-11.583v9.433c0 .372-.018.683-.054.928-.036.242-.092.437-.18.566-.259.387-.702.565-1.286.565h-.328v.091h5.275v-.09h-.318c-.535 0-.954-.142-1.226-.455-.116-.13-.188-.337-.234-.595a5.968 5.968 0 0 1-.07-1.01V21.03c0-.373.018-.683.055-.929.036-.242.092-.437.18-.566.265-.387.71-.565 1.295-.565h.318v-.09h-3.474l-4.745 10.507-4.822-10.508h-3.475v.093c.472.01.84.073 1.087.203.258.136.448.311.554.532.143.289.206.736.206 1.323v8.616c0 .372-.017.683-.054.928-.036.242-.092.437-.18.567-.266.386-.707.564-1.286.564h-.327v.091h4.274v-.09h-.328c-.535 0-.955-.143-1.227-.455-.112-.13-.182-.338-.226-.596a6.175 6.175 0 0 1-.067-1.01v-9.43l5.264 11.581Z"/><path d="M53.532 19.464v5.213H56.4c.745 0 1.242-.114 1.492-.34.334-.299.52-.824.558-1.576h.357v4.59h-.357c-.09-.642-.18-1.053-.27-1.235a1.21 1.21 0 0 0-.567-.535c-.263-.13-.667-.194-1.213-.194h-2.868v4.346c0 .584.026.939.077 1.065a.608.608 0 0 0 .27.302c.128.074.372.112.731.112h2.214c.738 0 1.273-.052 1.607-.156.334-.104.655-.308.963-.613.397-.402.805-1.008 1.222-1.818H61l-1.126 3.306H49.817v-.36h.462c.308 0 .6-.075.875-.223a.814.814 0 0 0 .419-.467c.074-.208.11-.632.11-1.274V21.04c0-.837-.083-1.352-.25-1.547-.23-.259-.616-.389-1.155-.389h-.462v-.36h10.058l.144 2.888h-.375c-.134-.693-.284-1.17-.447-1.429a1.542 1.542 0 0 0-.727-.593c-.257-.097-.709-.146-1.357-.146h-3.58Z"/><path fill-rule="evenodd" clip-rule="evenodd" d="M49.682 18.61h10.32l.158 3.157h-.628l-.02-.109c-.135-.693-.281-1.147-.43-1.383a1.406 1.406 0 0 0-.663-.54c-.232-.087-.661-.136-1.307-.136h-3.445v4.943H56.4c.367 0 .666-.028.902-.082.236-.054.398-.131.5-.223.294-.263.476-.743.514-1.483l.006-.128h.62v4.86h-.609l-.016-.117a10.84 10.84 0 0 0-.133-.78 1.994 1.994 0 0 0-.123-.413 1.077 1.077 0 0 0-.507-.474c-.235-.116-.614-.18-1.154-.18h-2.733v4.212c0 .29.006.52.018.694.014.179.032.279.049.32a.474.474 0 0 0 .212.235c.044.025.117.05.232.068.113.017.257.026.432.026h2.214c.736 0 1.254-.052 1.567-.15.309-.096.611-.286.907-.579.384-.388.784-.98 1.198-1.785l.038-.073h.655l-1.218 3.576H49.682v-.63h.597c.285 0 .555-.068.811-.207h.002l.002-.002a.68.68 0 0 0 .352-.391c.031-.087.058-.231.076-.44.018-.208.027-.47.027-.79V21.04c0-.415-.02-.745-.06-.993-.042-.253-.1-.398-.157-.465-.194-.217-.533-.343-1.054-.343h-.596v-.63Zm3.85.854v-.134h3.58c.648 0 1.122.047 1.405.154l.002.001.002.001c.343.145.608.36.788.645.17.267.315.73.445 1.367h.123l-.13-2.62H49.95v.092h.327c.556 0 .988.134 1.256.434l.001.002c.11.127.177.337.219.598.043.268.064.614.064 1.036v8.567c0 .323-.01.594-.028.811a2.16 2.16 0 0 1-.09.508l-.127-.045.127.045a.948.948 0 0 1-.483.54h.001l-.064-.118.061.12.002-.001a1.952 1.952 0 0 1-.938.239h-.328v-.135h-.134v.135h.135v.09h-.135v.135h.135v-.134h9.826l-.03.09.127.044v-.134h-.097l1.035-3.038H61v-.134l-.128-.044-.06.178h-.115l.037-.073-.12-.061v.134h.083c-.407.78-.81 1.376-1.209 1.779v.001c-.32.316-.66.534-1.018.645-.354.11-.907.162-1.647.162H54.61c-.184 0-.342-.01-.473-.03a.94.94 0 0 1-.326-.1l.068-.116-.068.116a.743.743 0 0 1-.327-.367l.125-.05-.125.05a1.471 1.471 0 0 1-.067-.402 10.39 10.39 0 0 1-.02-.713v-4.482H56.4c.552 0 .981.065 1.272.209.286.14.498.338.629.594v.001c.053.107.1.268.146.476.04.185.08.413.12.684h-.117v.135l.134-.019-.017-.116h.105v.135h.135v-.135h-.135v-4.32h.135v-.135h-.135v.135h-.095a5.09 5.09 0 0 0 .008-.128l-.135-.007v.135h.127c-.053.7-.242 1.225-.595 1.54l-.09-.1.09.1c-.148.135-.36.227-.62.287-.262.06-.584.088-.962.088h-3.002v-5.347h.134Zm-26.811-.083 2.469-1.116c.08-.036.145.066.147.227.002.161-.062.321-.142.357l-2.586 1.17a7.57 7.57 0 0 0-.063.655l2.854-1.29c.08-.036.147.066.148.227.001.161-.062.322-.142.357l-2.862 1.294c.009.187.028.372.057.555l.008.043 2.786-1.26c.08-.035.146.066.147.227.002.162-.062.322-.142.358l-2.667 1.205c.058.193.126.372.2.538l2.179-.985c.08-.036.146.065.147.227.002.161-.062.321-.142.357l-1.94.877.018.031c.094.16.191.31.292.456l1.151-.52c.08-.036.146.065.147.226.001.161-.062.321-.142.358l-.835.377c.109.145.218.286.327.428.322.423.648.86.93 1.385.259.484.488 1.06.6 1.778.194 1.222-.001 2.528-.35 3.782l-.02.069c-.128.015-.19-.266-.127-.621.155-.884.28-1.749.145-2.574a4.558 4.558 0 0 0-.601-1.619c-.294-.498-.63-.91-.952-1.334-.32-.418-.64-.853-.918-1.375a5.54 5.54 0 0 1-.595-1.776c-.198-1.27.02-2.626.395-3.912l.47-1.63c-.189 1.198-.253 1.527-.392 2.449"/><path fill-rule="evenodd" clip-rule="evenodd" d="m26.841 33.285 2.453-2.126c.078-.069.141-.254.14-.413-.003-.158-.069-.232-.148-.163l-2.569 2.228a4.683 4.683 0 0 1-.076-.556l2.835-2.46c.08-.068.142-.253.14-.412-.001-.16-.067-.232-.147-.163l-2.842 2.465a6.822 6.822 0 0 1 .05-.666l2.768-2.4c.08-.069.142-.253.14-.412-.003-.16-.068-.233-.148-.164l-2.649 2.297c.053-.262.116-.524.185-.782l2.164-1.877c.079-.069.142-.253.14-.412-.002-.16-.068-.233-.147-.163l-1.928 1.671.017-.055c.09-.277.182-.55.277-.822l1.144-.992c.08-.069.142-.253.14-.412-.002-.159-.068-.232-.147-.163l-.83.72c.104-.284.21-.564.313-.844.308-.83.618-1.68.884-2.557.244-.808.457-1.666.553-2.512.163-1.44-.057-2.457-.428-3.223l-.02-.042c-.127.153-.18.505-.112.77.17.66.313 1.338.198 2.318-.094.795-.316 1.61-.556 2.356-.278.868-.599 1.706-.908 2.538a42.666 42.666 0 0 0-.872 2.533c-.243.805-.452 1.66-.546 2.501-.168 1.495.077 2.53.473 3.293l.497.975c-.211-.92-.282-1.157-.439-1.872"/><path d="M27.831 15.375a1.314 1.314 0 1 0 0-2.628 1.314 1.314 0 0 0 0 2.628Zm60.546.785c-1.313-1.923-2.673-3.862-3.987-5.74l-.158-.226c-1.599-2.285-3.253-4.648-4.846-6.998-.563-.83-.999-1.738-1.455-2.7L77.693 0l-.017.037c-.007-.012-.012-.024-.018-.037l-.238.497c-.456.961-.892 1.868-1.455 2.7-1.593 2.35-3.247 4.712-4.846 6.997l-.158.226c-1.314 1.878-2.674 3.817-3.988 5.74-2.406 3.521-4.84 7.82-4.607 13.025.37 8.314 7.184 15.077 15.191 15.077.04 0 .078-.003.118-.003.04 0 .08.003.118.003 8.007 0 14.821-6.762 15.191-15.077.233-5.206-2.2-9.504-4.607-13.026Zm-21.694 2.407c.636-1.19 1.344-2.29 2.034-3.311.866-1.282 1.83-2.577 2.685-3.724 2.114-2.838 4.292-5.762 5.707-9.203l.068-.136.499-.998.5.998.066.136c1.416 3.441 3.594 6.365 5.708 9.203.854 1.147 1.82 2.442 2.684 3.724.69 1.02 1.4 2.122 2.035 3.31 0 0 2.225 3.871 2.04 7.88a13.504 13.504 0 0 1-1.522 5.655.01.01 0 0 1-.003-.002l-.007.013c-.124.24-.257.477-.396.711l-.049.081a10.695 10.695 0 0 1-.39.605l-.058.087c-.174.248-.357.488-.545.725-2.293 2.86-5.534 4.599-9.124 4.898-.31.024-.626.038-.939.041a13.953 13.953 0 0 1-.939-.041c-3.59-.3-6.831-2.04-9.124-4.898a15.4 15.4 0 0 1-.545-.725l-.058-.086a12.549 12.549 0 0 1-.439-.687 12.88 12.88 0 0 1-.395-.71l-.007-.014-.004.002a13.498 13.498 0 0 1-1.522-5.655c-.199-4.063 2.04-7.88 2.04-7.88Z"/><path d="m88.105 20.098-.295-.572-.26-.5-.122-.222-.02-.04a37.564 37.564 0 0 0-1.688-2.71c-.776-1.152-1.642-2.319-2.41-3.344-.46-.622-.93-1.25-1.395-1.887-.129-.182-.26-.368-.394-.555-1.291-1.835-2.503-3.762-3.373-5.915l-.42-1.032-.504 1c-.134.266-.258.537-.382.794l-.07.147c-.306.647-.613 1.304-1.003 1.87a310.886 310.886 0 0 1-3.297 4.767l-.372.529c-.892 1.276-1.813 2.593-2.72 3.917-1.785 2.619-3.593 5.829-3.41 9.759a12.218 12.218 0 0 0 3.43 7.945c.09.096.182.19.277.28 2.095 2.032 4.895 3.288 7.917 3.288.308 0 .618-.014.923-.042 3.228-.268 6.138-1.828 8.197-4.398.168-.213.334-.43.491-.65l.801-1.334.006-.01.226-.381c1.255-2.61 2.005-6.817-.134-10.704h.001Zm-1.064-.734c-.172 0-.53 0-.837.206-.224.155-.482.444-.944 1.539-.665 1.61-1.128 2.535-2.054 4.64-1.095 2.501-1.9 4.367-2.277 5.222-.445.992-.548 1.268-.787 1.268-.222 0-.326-.242-.65-1.047l-3.064-7.426-1.251-3.031c-.393-.944-.683-1.131-1.3-1.302a4.29 4.29 0 0 0-.654-.082c.009 0 .018-.002.027-.004l-.1.015c-.02.002-.04.002-.06.002-.17 0-.306.02-.512.053-.464.084-.6.374-.635.976-.033.547-.033 1.025-.033 3.63v3.01c0 .393 0 .767.003 1.122.003 1.144.012 2.066.066 2.63.05.46.17.768.684.838.239.032.616.069.874.069.188 0 .271.05.271.136 0 .118-.135.17-.322.17-1.131 0-2.21-.052-2.67-.052-.253 0-.785.02-1.316.037-.3.007-.595.015-.843.015-.221 0-.342-.052-.342-.17 0-.085.069-.136.275-.136.257 0 .462-.037.614-.07.345-.07.448-.36.498-.857.086-.72.086-2.07.086-3.73v-3.012c0-2.604 0-3.083-.034-3.63-.036-.584-.205-.874-.584-.96a2.479 2.479 0 0 0-.615-.068c-.171 0-.274-.034-.274-.169 0-.106.135-.14.411-.14.65 0 1.729.052 2.226.052.387 0 1.253-.042 1.895-.05v-.011h.984v.011c.802.011 1.611.05 2.133.05.43 0 1.251-.051 2.107-.051.206 0 .393.033.393.153s-.102.155-.256.155c-.275 0-.532.019-.668.121-.119.084-.17.206-.17.357 0 .225.151.704.392 1.32l.3.786 2.644 6.984h.07c.735-1.882 2.96-7.394 3.373-8.525.084-.221.153-.477.153-.632a.332.332 0 0 0-.223-.327 2.366 2.366 0 0 0-.683-.084c-.156 0-.292-.018-.292-.136 0-.14.154-.172.48-.172.854 0 1.574.051 1.797.051.292 0 1.095-.051 1.61-.051.22 0 .36.033.36.153s-.103.155-.276.155Zm-6.025-2.543a2.67 2.67 0 0 1-.038.096l.038-.096Zm-14.354-2.452h-36.18v-.784h36.687l-.507.784Zm-41.422-.784H.095v.784h25.147v-.784ZM.016 36.262h63.589l.445.768H.016v-.768Z"/></g><defs><clipPath id="piv knockout logo__a"><path fill="white" d="M0 0h93v44.261H0z"/></clipPath></defs></svg>