<svg width="35" height="35" viewBox="0 0 35 35" fill="none" xmlns="http://www.w3.org/2000/svg"><path d="M29.258 14.786 25.39 8.588a2.346 2.346 0 0 0-1.99-1.103H2.346A2.346 2.346 0 0 0 0 9.83v13.187a2.346 2.346 0 0 0 2.346 2.346h.616a3.713 3.713 0 0 0 3.358 2.151 3.712 3.712 0 0 0 3.356-2.15h15.648a3.713 3.713 0 0 0 3.358 2.15 3.712 3.712 0 0 0 3.356-2.15h.616A2.347 2.347 0 0 0 35 23.017v-1.952c0-3.283-2.53-5.993-5.742-6.28ZM6.325 25.336a1.535 1.535 0 1 1 0-3.07 1.535 1.535 0 0 1 0 3.07Zm14.043-8.91V9.831H23.4l4.117 6.593h-7.149Zm8.313 8.91a1.535 1.535 0 1 1 0-3.07 1.535 1.535 0 0 1 0 3.07Z" fill="#05518F"/></svg>