<svg width="34" height="69" viewBox="0 0 34 69" fill="none" xmlns="http://www.w3.org/2000/svg"><g clip-path="url(#rehydrate__a)"><path fill-rule="evenodd" clip-rule="evenodd" d="M33.953 12.99a8.88 8.88 0 0 0-.626-3.157c-1.538-3.868-4.504-5.972-8.545-6.63-.557-.09-1.123-.125-1.74-.192 0-.438.012-.832-.003-1.225C23 .69 22.332.015 21.236.009a815.295 815.295 0 0 0-8.525.002c-1.05.006-1.716.698-1.757 1.755-.014.395-.002.79-.002 1.104-1.42.314-2.76.489-4.018.91C2.83 5.151.02 8.983.013 13.171a4581.44 4581.44 0 0 0 .02 28.717 8.578 8.578 0 0 0 .563 3.039c1.68 4.264 4.93 6.456 9.421 6.87.798.073 1.607.01 2.48.01-.261 2.285.67 3.543 2.85 3.832V69h3.328V55.678c1.62-.491 2.6-1.764 2.94-3.819h1.29c1.83.002 3.601-.306 5.239-1.153 3.64-1.883 5.792-4.822 5.82-9 .061-9.572.037-19.144-.011-28.717Z" fill="url(#rehydrate__b)"/><path fill-rule="evenodd" clip-rule="evenodd" d="M31.98 41.591c-.01 4.173-3.218 7.767-7.36 8.173-1.72.169-3.47.028-5.198.028-.112 1.292-.207 2.434-.324 3.573-.006.056-.213.09-.41.17 0-1.97-.01-3.862.023-5.753.003-.124.346-.343.535-.347 1.454-.03 2.909-.012 4.363-.017 3.779-.014 6.54-2.763 6.548-6.561.013-8.027.007-16.054.003-24.081-.003-3.928-2.664-6.698-6.598-6.749-4.384-.057-8.77-.063-13.155.002-3.928.057-6.572 2.835-6.574 6.773-.006 8.027-.01 16.054.002 24.081.005 3.282 2.159 5.945 5.328 6.443 1.249.197 2.55.075 3.825.092.617.008 1.235.011 1.851-.002.33-.007.478.102.476.457-.011 1.855-.005 3.712-.005 5.629-.57-.067-.63-.393-.628-.771.005-.905.002-1.809.002-2.81-1.28 0-2.53.064-3.77-.02-1.041-.071-2.108-.198-3.099-.507-3.52-1.096-5.796-4.207-5.804-7.904a7929.18 7929.18 0 0 1-.004-28.06c.009-5.426 4.628-8.314 8.135-8.35 4.67-.047 9.344-.134 14.009.033 3.667.13 7.81 3.187 7.827 8.22.032 9.42.026 18.84.002 28.26" fill="white"/><path d="M14.774 21.988H8.626v.946h6.148v-.946Zm-.01 11.864H8.635v.94h6.129v-.94Zm1.171 5.834H8.646v.973h7.29v-.973Zm0-11.852H8.646v.973h7.29v-.973Zm-.105-11.662H8.5v.974h7.33v-.974Z" fill="white"/></g><defs><linearGradient id="rehydrate__b" x1="0" y1="0" x2="0" y2="64.208" gradientUnits="userSpaceOnUse"><stop stop-color="#31A9E0"/><stop offset="1" stop-color="#05518F"/></linearGradient><clipPath id="rehydrate__a"><path fill="white" d="M0 0h34v69H0z"/></clipPath></defs></svg>