<svg width="60" height="60" viewBox="0 0 60 60" fill="none" xmlns="http://www.w3.org/2000/svg"><path d="M16.765 7.077c2.076-1.199 3.378-3.043 4.02-5.722.332-1.39 2.093-1.829 3.038-.757C25.572 2.578 27.593 3.53 30 3.53c2.397 0 4.446-.946 6.341-2.945.983-1.038 2.728-.537 3.01.864.524 2.59 1.8 4.424 3.884 5.628 2.076 1.198 4.324 1.404 6.964.62 1.37-.408 2.63.898 2.175 2.253-.841 2.504-.654 4.73.55 6.815 1.198 2.076 3.042 3.378 5.72 4.02 1.391.332 1.83 2.093.758 3.038-1.98 1.748-2.933 3.77-2.933 6.177 0 2.397.947 4.446 2.946 6.341 1.038.983.537 2.728-.864 3.01-2.59.524-4.424 1.8-5.628 3.884-1.198 2.076-1.404 4.324-.62 6.964.408 1.37-.898 2.63-2.253 2.175-2.504-.841-4.73-.654-6.815.55-2.076 1.198-3.378 3.042-4.02 5.72-.332 1.391-2.093 1.83-3.039.758-1.747-1.98-3.77-2.933-6.176-2.933-2.397 0-4.446.947-6.341 2.946-.983 1.038-2.728.537-3.01-.864-.524-2.59-1.8-4.424-3.884-5.628-2.076-1.198-4.324-1.404-6.964-.62-1.37.408-2.63-.898-2.175-2.253.841-2.504.654-4.73-.55-6.815-1.198-2.076-3.042-3.378-5.72-4.02-1.391-.332-1.83-2.093-.758-3.039C2.578 34.43 3.53 32.406 3.53 30c0-2.397-.946-4.446-2.945-6.341-1.038-.983-.537-2.728.864-3.01 2.59-.524 4.424-1.8 5.628-3.884 1.198-2.076 1.404-4.324.62-6.964-.408-1.37.898-2.63 2.253-2.175 2.504.841 4.73.654 6.815-.55ZM30 48.529c10.233 0 18.529-8.296 18.529-18.529S40.233 11.471 30 11.471 11.471 19.767 11.471 30 19.767 48.529 30 48.529Zm0-3.53C21.716 45 15 38.284 15 30s6.716-15 15-15c8.284 0 15 6.716 15 15 0 8.284-6.716 15-15 15Z" fill="url(#Vector__a)"/><defs><radialGradient id="Vector__a" cx="0" cy="0" r="1" gradientUnits="userSpaceOnUse" gradientTransform="matrix(0 30 -30 0 30 30)"><stop offset=".344" stop-color="#5CAEDC"/><stop offset="1" stop-color="#05518F"/></radialGradient></defs></svg>