<svg width="15" height="15" viewBox="0 0 15 15" fill="none" xmlns="http://www.w3.org/2000/svg">
<g clip-path="url(#clip0_5_311)">
<path d="M10.8333 15H2.50002C1.8322 15 1.20441 14.7399 0.73224 14.2677C0.260072 13.7955 3.05176e-05 13.1677 3.05176e-05 12.5V4.16666C3.05176e-05 3.49887 0.260101 2.87108 0.732269 2.39891C1.20444 1.92675 1.83223 1.66668 2.50005 1.66668H5.83337C6.29363 1.66668 6.66671 2.03975 6.66671 2.50001C6.66671 2.96028 6.29363 3.33335 5.83337 3.33335H2.50002C2.27741 3.33335 2.06817 3.42004 1.9108 3.57741C1.75343 3.73478 1.66671 3.94406 1.66671 4.16666V12.5C1.66671 12.7226 1.7534 12.9318 1.9108 13.0893C2.06817 13.2466 2.27741 13.3333 2.50002 13.3333H10.8333C11.0559 13.3333 11.2652 13.2466 11.4226 13.0892C11.5799 12.9318 11.6666 12.7226 11.6666 12.5V9.16666C11.6666 8.7064 12.0397 8.33335 12.5 8.33335C12.9602 8.33335 13.3334 8.70643 13.3334 9.16666V12.5C13.3334 13.1678 13.0733 13.7955 12.6011 14.2678C12.1289 14.7399 11.5011 15 10.8333 15ZM5.83337 9.99997C5.62008 9.99997 5.40682 9.91864 5.24412 9.75591C4.9187 9.43049 4.9187 8.90281 5.24412 8.57738L12.1548 1.66668H9.16669C8.70643 1.66668 8.33338 1.2936 8.33338 0.833338C8.33338 0.373077 8.70643 0 9.16669 0H14.1667C14.2819 0 14.3917 0.0234046 14.4916 0.0657018C14.5847 0.105117 14.6722 0.162231 14.7488 0.237074C14.7488 0.237103 14.7488 0.237103 14.7489 0.237132C14.7494 0.237685 14.75 0.238209 14.7505 0.238762C14.7506 0.238908 14.7508 0.239082 14.751 0.239228C14.7514 0.239635 14.7519 0.240072 14.7523 0.240509C14.7526 0.2408 14.7528 0.241062 14.7531 0.241353C14.7534 0.241673 14.7538 0.242022 14.754 0.242284C14.7546 0.242867 14.7553 0.243478 14.7559 0.244089C14.7564 0.244671 14.7571 0.245312 14.7577 0.245894C14.758 0.246185 14.7583 0.246564 14.7586 0.246826C14.7589 0.247117 14.7591 0.247379 14.7594 0.24767C14.7599 0.248106 14.7603 0.248514 14.7607 0.24898C14.7608 0.249096 14.761 0.2493 14.7612 0.249445C14.7617 0.249999 14.7623 0.250552 14.7628 0.251105C14.7628 0.251134 14.7628 0.251134 14.7628 0.251163C14.8377 0.327781 14.8948 0.415286 14.9342 0.508439C14.9765 0.608287 14.9999 0.718033 14.9999 0.833309V5.83331C14.9999 6.29357 14.6268 6.66665 14.1665 6.66665C13.7063 6.66665 13.3332 6.29357 13.3332 5.83331V2.8452L6.42247 9.75594C6.25989 9.91867 6.04663 9.99997 5.83337 9.99997Z" fill="#05518F"/>
</g>
<defs>
<clipPath id="clip0_5_311">
<rect width="15" height="15" fill="white"/>
</clipPath>
</defs>
</svg>
