<svg width="50" height="60" viewBox="0 0 50 60" fill="none" xmlns="http://www.w3.org/2000/svg">
<g clip-path="url(#clip0_54_64)">
<path fill-rule="evenodd" clip-rule="evenodd" d="M25 2.34015C31.5048 2.34015 36.7773 7.60504 36.7773 14.1049C36.7773 20.6047 31.5058 25.8714 25 25.8714V28.2097C32.7994 28.2097 39.1159 21.8962 39.1159 14.1049C39.1159 6.31348 32.7994 0 25 0V2.34015ZM25 25.8714C18.4942 25.8714 13.2227 20.6047 13.2227 14.1049C13.2227 7.60504 18.4952 2.34015 25 2.34015V0C17.2024 0 10.8795 6.31531 10.8795 14.1058C10.8795 21.8962 17.2024 28.2106 25 28.2106V25.8723V25.8714Z" fill="#05518F"/>
<path fill-rule="evenodd" clip-rule="evenodd" d="M25 15.6193C25.8347 15.6193 26.5149 14.9379 26.5149 14.1058C26.5149 13.2737 25.8347 12.5913 25 12.5913C24.1653 12.5913 23.4833 13.2709 23.4833 14.1058C23.4833 14.9406 24.168 15.6193 25 15.6193Z" fill="#05518F"/>
<path fill-rule="evenodd" clip-rule="evenodd" d="M32.8643 18.0279V18.0316C32.7775 18.1978 32.5681 18.2682 32.4008 18.1832L25.1527 14.5661C24.9845 14.4821 24.9159 14.2738 25.0009 14.1048C25.0859 13.9331 25.2926 13.8646 25.4626 13.9523L32.7089 17.5685C32.8771 17.6544 32.9475 17.8599 32.8652 18.0279" fill="#05518F"/>
<path fill-rule="evenodd" clip-rule="evenodd" d="M25 6.20295C25.7131 6.20295 26.29 5.62293 26.29 4.91595C26.29 4.20898 25.7131 3.62622 25 3.62622C24.2869 3.62622 23.71 4.20349 23.71 4.91595C23.71 5.62841 24.2915 6.20295 25 6.20295Z" fill="#05518F"/>
<path fill-rule="evenodd" clip-rule="evenodd" d="M25 24.5826C25.7131 24.5826 26.29 24.0026 26.29 23.2965C26.29 22.5904 25.7131 22.0059 25 22.0059C24.2869 22.0059 23.71 22.5868 23.71 23.2965C23.71 24.0062 24.2915 24.5826 25 24.5826Z" fill="#05518F"/>
<path fill-rule="evenodd" clip-rule="evenodd" d="M15.8036 15.3891C16.5149 15.3891 17.0936 14.8127 17.0936 14.1049C17.0936 13.397 16.514 12.8151 15.8036 12.8151C15.0932 12.8151 14.5173 13.3942 14.5173 14.1049C14.5173 14.8155 15.0942 15.3891 15.8036 15.3891Z" fill="#05518F"/>
<path fill-rule="evenodd" clip-rule="evenodd" d="M34.2028 15.3891C34.9077 15.3891 35.4909 14.8127 35.4909 14.1049C35.4909 13.397 34.9077 12.8151 34.2028 12.8151C33.4979 12.8151 32.9128 13.3942 32.9128 14.1049C32.9128 14.8155 33.4878 15.3891 34.2028 15.3891Z" fill="#05518F"/>
<path fill-rule="evenodd" clip-rule="evenodd" d="M43.07 12.8736C47.25 15.7609 50 20.5791 50 26.0066V44.0345C50 52.816 42.8122 60.0009 34.0245 60.0009H26.3321V32.1529C35.7113 31.4706 43.1139 23.6536 43.1139 14.1058C43.1139 13.6929 43.0975 13.281 43.07 12.8736M23.6716 60.0009H15.9792C7.18961 60 0 52.816 0 44.0345V26.0066C0 20.5791 2.75462 15.7609 6.93454 12.8708C6.90437 13.2819 6.88974 13.6938 6.88974 14.1058C6.88974 23.6536 14.286 31.4706 23.6716 32.1511V60.0009V60.0009Z" fill="url(#paint0_linear_54_64)"/>
</g>
<defs>
<linearGradient id="paint0_linear_54_64" x1="25" y1="12.8708" x2="25" y2="60.0009" gradientUnits="userSpaceOnUse">
<stop stop-color="#05518F"/>
<stop offset="1" stop-color="#58ADDE"/>
</linearGradient>
<clipPath id="clip0_54_64">
<rect width="50" height="60" fill="white"/>
</clipPath>
</defs>
</svg>
